<svg xmlns="http://www.w3.org/2000/svg" viewBox="0 0 750 500"><g id="freepik--background-complete--inject-2"><rect x="539.61" y="384.59" width="48.65" height="12.87" style="fill:#ebebeb"></rect><path d="M567.69,411s0-.09,0-.24l0-.66c0-.6,0-1.45,0-2.53,0-2.22,0-5.42-.08-9.45l.15.15-48.65.1.25-.25h0v6.53c0,2.15,0,4.27,0,6.34l-.24-.25,34.67.11,10.23.07,2.77,0,.73,0a.72.72,0,0,1,.25,0h-.22l-.7,0-2.71,0-10.18.07-34.84.11h-.24V411c0-2.07,0-4.19,0-6.34v-6.53h0l.25-.24,48.65.09h.15v.15c0,4.07-.06,7.29-.08,9.54,0,1.07,0,1.9,0,2.5,0,.26,0,.47,0,.63A.85.85,0,0,1,567.69,411Z" style="fill:#e0e0e0"></path><rect x="64.97" y="89.07" width="48.65" height="12.87" style="fill:#ebebeb"></rect><path d="M93.05,115.5s0-.09,0-.24l0-.66c0-.6,0-1.45,0-2.53,0-2.22,0-5.42-.08-9.45l.15.15-48.65.1.25-.25h0v12.86l-.24-.24,34.67.11,10.23.07,2.77,0,.72,0a.81.81,0,0,1,.26,0h-.23l-.69,0-2.71,0-10.18.07-34.84.11h-.24V102.63h0l.25-.24,48.65.09h.15v.15c0,4.07-.06,7.29-.08,9.54,0,1.07,0,1.9,0,2.5,0,.26,0,.47,0,.63A.85.85,0,0,1,93.05,115.5Z" style="fill:#e0e0e0"></path><path d="M238.22,153.81a2.07,2.07,0,0,1,0-.23l0-.66c0-.61,0-1.45,0-2.54,0-2.22,0-5.41-.08-9.44l.15.15-48.65.1.25-.25h0v3.27c0,1.09,0,2.18,0,3.25v6.33l-.24-.24,34.67.11,10.23.07,2.77,0,.72,0h.26s-.07,0-.22,0h-.7l-2.71,0-10.18.07-34.84.11h-.24v-.24q0-3.1,0-6.33V141h0l.25-.25,48.65.1h.15v.15c0,4.07-.06,7.29-.08,9.53,0,1.07,0,1.91,0,2.5,0,.26,0,.47,0,.64S238.23,153.82,238.22,153.81Z" style="fill:#e0e0e0"></path><path d="M426.16,411.32a2.07,2.07,0,0,1,0-.23l0-.66c0-.61,0-1.45,0-2.54,0-2.22-.05-5.41-.09-9.44l.15.15-48.65.1.25-.25h0V405q0,3.22,0,6.33l-.24-.24,34.67.11,10.24.07,2.76,0,.73,0h.25s-.07,0-.22,0h-.7l-2.71,0-10.18.07-34.84.11h-.24v-.24q0-3.1,0-6.33v-6.52h0l.25-.25,48.65.1h.16v.15c0,4.07-.06,7.29-.08,9.53,0,1.07,0,1.91,0,2.5,0,.26,0,.47,0,.64S426.17,411.33,426.16,411.32Z" style="fill:#e0e0e0"></path><path d="M90.29,358.39s0-.08,0-.23l0-.66c0-.61,0-1.45,0-2.54,0-2.22,0-5.41-.08-9.44l.15.15-48.65.1.25-.25h0v3.27c0,1.09,0,2.17,0,3.25v6.33l-.24-.24,34.67.11,10.23.07,2.77,0H90l.26,0s-.07,0-.22,0h-.7l-2.71,0-10.18.07-34.84.11H41.4v-.24q0-3.11,0-6.33v-6.52h0l.25-.25,48.65.1h.15v.15c0,4.06-.06,7.29-.08,9.53,0,1.07,0,1.9,0,2.5,0,.26,0,.47,0,.64S90.3,358.39,90.29,358.39Z" style="fill:#e0e0e0"></path><path d="M333.64,49.87a2.07,2.07,0,0,1,0-.23l0-.66c0-.61,0-1.45,0-2.54,0-2.22-.05-5.41-.09-9.44l.15.15-48.64.1c.1-.11-.25.25.24-.25h0v6.52q0,3.23,0,6.33l-.24-.24,34.67.11,10.24.07,2.76,0,.73,0h.25s-.07,0-.22,0h-.69l-2.72,0L319.83,50,285,50.11h-.24V43.54c0-1.07,0-2.16,0-3.25V37h0c.5-.5.14-.14.26-.25l48.64.1h.16V37c0,4.07-.07,7.29-.09,9.53,0,1.07,0,1.91,0,2.5l0,.64C333.65,49.81,333.65,49.88,333.64,49.87Z" style="fill:#e0e0e0"></path><path d="M340.24,37s0-.09,0-.24,0-.41,0-.69c0-.63,0-1.49,0-2.58,0-2.25-.06-5.44-.1-9.36l.18.18L311,24.38l.25-.25h0v3.33c0,1.11,0,2.2,0,3.28V37l-.24-.24,20.91.12,6.09.06,1.64,0,.59,0a3.28,3.28,0,0,1-.53,0l-1.59,0-6,.06L311,37.24h-.24V37c0-2,0-4.09,0-6.24V24.15h0l.25-.25,29.23.07h.18v.18c0,4-.07,7.19-.1,9.47,0,1.07,0,1.92,0,2.54A6.65,6.65,0,0,1,340.24,37Z" style="fill:#e0e0e0"></path><path d="M361.16,319.17s0-.09,0-.24l0-.66c0-.6,0-1.45,0-2.53,0-2.22,0-5.42-.08-9.44l.15.15-48.65.09.25-.24h0v3.27c0,1.09,0,2.17,0,3.25v6.33l-.24-.25,34.67.11,10.23.07,2.77,0h.72l.26,0h-.22l-.7,0-2.71,0-10.18.07-34.84.11h-.24v-.24c0-2.07,0-4.19,0-6.33v-6.52h0l.25-.25,48.65.09h.15v.16c0,4.06-.06,7.29-.08,9.53,0,1.07,0,1.9,0,2.5V319A.85.85,0,0,1,361.16,319.17Z" style="fill:#e0e0e0"></path><path d="M367.76,306.3a1.41,1.41,0,0,1,0-.25c0-.18,0-.41,0-.68,0-.63,0-1.5,0-2.58,0-2.26-.06-5.45-.1-9.37l.18.18-29.23.07.24-.24h0v6.6c0,2.16,0,4.25,0,6.25l-.23-.24,20.91.11,6.09.07,1.64,0,.59,0a4.89,4.89,0,0,1-.53,0l-1.6,0-6,.07-21.07.11h-.24v-.23c0-2,0-4.09,0-6.25v-6.6h0l.25-.25,29.23.07h.18v.17c0,4-.08,7.19-.1,9.48,0,1.07,0,1.91,0,2.54S367.77,306.31,367.76,306.3Z" style="fill:#e0e0e0"></path><rect x="566.77" y="89.64" width="34.22" height="73.24" style="fill:#f5f5f5"></rect><rect x="602.41" y="168" width="42.04" height="70.77" style="fill:#f5f5f5"></rect><polygon points="649.57 88.37 689.49 88.37 689.49 23.4 690.91 23.4 690.91 88.37 727.86 88.37 727.86 21.96 649.57 21.96 649.57 88.37" style="fill:#f5f5f5"></polygon><rect x="566.77" y="168" width="34.22" height="70.77" style="fill:#f5f5f5"></rect><rect x="690.91" y="168" width="36.95" height="70.77" style="fill:#f5f5f5"></rect><rect x="602.41" y="89.64" width="42.04" height="73.24" style="fill:#f5f5f5"></rect><rect x="690.91" y="89.64" width="36.95" height="73.24" style="fill:#f5f5f5"></rect><rect x="566.77" y="240.03" width="34.22" height="63.77" style="fill:#f5f5f5"></rect><polygon points="600.99 88.37 600.99 23.4 602.4 23.4 602.4 88.37 644.45 88.37 644.45 21.96 566.77 21.96 566.77 88.37 600.99 88.37" style="fill:#f5f5f5"></polygon><rect x="602.41" y="240.03" width="42.04" height="63.77" style="fill:#f5f5f5"></rect><rect x="690.91" y="240.03" width="36.95" height="63.77" style="fill:#f5f5f5"></rect><rect x="649.57" y="89.64" width="39.92" height="73.24" style="fill:#f5f5f5"></rect><rect x="649.57" y="240.03" width="39.92" height="63.77" style="fill:#f5f5f5"></rect><rect x="649.57" y="168" width="39.92" height="70.77" style="fill:#f5f5f5"></rect><rect x="400.02" y="89.64" width="34.22" height="73.24" style="fill:#f5f5f5"></rect><rect x="435.65" y="168" width="42.04" height="70.77" style="fill:#f5f5f5"></rect><polygon points="482.81 88.37 522.74 88.37 522.74 23.4 524.16 23.4 524.16 88.37 561.11 88.37 561.11 21.96 482.81 21.96 482.81 88.37" style="fill:#f5f5f5"></polygon><rect x="400.02" y="168" width="34.22" height="70.77" style="fill:#f5f5f5"></rect><rect x="524.16" y="168" width="36.95" height="70.77" style="fill:#f5f5f5"></rect><rect x="435.65" y="89.64" width="42.04" height="73.24" style="fill:#f5f5f5"></rect><rect x="524.16" y="89.64" width="36.95" height="73.24" style="fill:#f5f5f5"></rect><rect x="400.02" y="240.03" width="34.22" height="63.77" style="fill:#f5f5f5"></rect><polygon points="434.23 88.37 434.23 23.4 435.65 23.4 435.65 88.37 477.7 88.37 477.7 21.96 400.02 21.96 400.02 88.37 434.23 88.37" style="fill:#f5f5f5"></polygon><rect x="435.65" y="240.03" width="42.04" height="63.77" style="fill:#f5f5f5"></rect><rect x="524.16" y="240.03" width="36.95" height="63.77" style="fill:#f5f5f5"></rect><rect x="482.81" y="89.64" width="39.92" height="73.24" style="fill:#f5f5f5"></rect><rect x="482.81" y="240.03" width="39.92" height="63.77" style="fill:#f5f5f5"></rect><rect x="482.81" y="168" width="39.92" height="70.77" style="fill:#f5f5f5"></rect><rect x="138.71" y="23.56" width="6.77" height="451.11" style="fill:#e0e0e0"></rect><rect x="282.21" y="21.05" width="6.77" height="451.11" style="fill:#e0e0e0"></rect><rect x="145.48" y="59.98" width="136.73" height="6.06" style="fill:#e0e0e0"></rect><rect x="145.48" y="92.42" width="136.73" height="6.06" style="fill:#e0e0e0"></rect><rect x="145.48" y="124.86" width="136.73" height="6.06" style="fill:#e0e0e0"></rect><rect x="145.48" y="157.3" width="136.73" height="6.06" style="fill:#e0e0e0"></rect><rect x="145.48" y="189.74" width="136.73" height="6.06" style="fill:#e0e0e0"></rect><rect x="145.48" y="222.18" width="136.73" height="6.06" style="fill:#e0e0e0"></rect><rect x="145.48" y="254.62" width="136.73" height="6.06" style="fill:#e0e0e0"></rect><rect x="145.48" y="287.06" width="136.73" height="6.06" style="fill:#e0e0e0"></rect><rect x="145.48" y="319.5" width="136.73" height="6.06" style="fill:#e0e0e0"></rect><rect x="145.48" y="351.94" width="136.73" height="6.06" style="fill:#e0e0e0"></rect><rect x="145.48" y="384.38" width="136.73" height="6.06" style="fill:#e0e0e0"></rect><rect x="145.48" y="416.82" width="136.73" height="6.06" style="fill:#e0e0e0"></rect></g><g id="freepik--Floor--inject-2"><path d="M733.62,475.55c0,.15-161,.26-359.6.26s-359.64-.11-359.64-.26,161-.26,359.64-.26S733.62,475.41,733.62,475.55Z" style="fill:#263238"></path></g><g id="freepik--speech-bubble--inject-2"><path d="M343.06,146.13l-8.86-1a28.47,28.47,0,1,1,5.74-8.43h0Z" style="fill:#fff"></path><path d="M343.06,146.13l-.22-.63c-.14-.42-.35-1-.61-1.82l-2.36-7,.15,0h0a.08.08,0,0,1-.12,0,.11.11,0,0,1,0-.11,28.33,28.33,0,0,0,2.3-13.82,27.13,27.13,0,0,0-.7-4.32A33.24,33.24,0,0,0,340,114a28.24,28.24,0,0,0-54,7.42,28.75,28.75,0,0,0,1.31,12.93,27.81,27.81,0,0,0,6.43,10.41,28.31,28.31,0,0,0,19.44,8.57l1.21,0a7.85,7.85,0,0,0,1.19,0l2.32-.2a38.43,38.43,0,0,0,4.31-1A28.38,28.38,0,0,0,334.14,145a.11.11,0,0,1,.07,0l6.56.82,1.7.22.59.08-.55,0-1.69-.18-6.63-.72.07,0a28.22,28.22,0,0,1-12,7.3,39.11,39.11,0,0,1-4.35,1l-2.34.21a8,8,0,0,1-1.2.05h-1.23a28.67,28.67,0,0,1-19.69-8.62,28.16,28.16,0,0,1-6.53-10.55,29.09,29.09,0,0,1-1.34-13.11,28.45,28.45,0,0,1,5-12.84,11.57,11.57,0,0,1,1.05-1.37l1.1-1.34,1.21-1.21a11.38,11.38,0,0,1,1.25-1.16l1.32-1.09c.42-.37.92-.64,1.38-1s.92-.64,1.41-.92l1.48-.79a28.18,28.18,0,0,1,12.51-3.19,28.54,28.54,0,0,1,26.89,17.4,32,32,0,0,1,1.51,4.49,27.68,27.68,0,0,1,.69,4.37,28.48,28.48,0,0,1-2.4,13.91l-.15-.09h0a.08.08,0,0,1,.12,0l0,0,2.27,7.1.57,1.81C343,145.93,343.06,146.13,343.06,146.13Z" style="fill:#263238"></path><polygon points="300.47 126.21 303.97 122.46 311.18 128.43 324.46 114.76 327.95 118.27 310.9 135.45 300.47 126.21" style="fill:#407BFF"></polygon></g><g id="freepik--character-4--inject-2"><path d="M607.62,376.59l-25.18,86s16.9,3.59,16.9,2.51,16.86-29.86,17.79-35.25a124,124,0,0,1,3.8-14l13.31-34.9Z" style="fill:#b56760"></path><path d="M684.37,376.59l25.18,86s-16.91,3.59-16.91,2.51-16.86-29.86-17.78-35.25a124,124,0,0,0-3.8-14l-13.31-34.9Z" style="fill:#b56760"></path><path d="M639,172.94s23.24,21.39,28.89,41.48c4.11,14.63,1.06,34.52,1.06,34.52H652.3l.58-29L631,178.65Z" style="fill:#b56760"></path><polygon points="613.05 339.63 600.23 383.99 636.13 390.88 645.1 366.21 654.76 392.09 689.97 386.37 677.34 331.45 626.84 333.83 615.92 334.51 613.05 339.63" style="fill:#263238"></polygon><path d="M640.31,209c-3.14-6.41-12.94-10-19.21-6.65l-19.6,12.84,1.54,3.51L622.47,262h0s7.67,13.38,19.27,7.64c10.42-5.15,5.15-16.23,5.14-16.24l-3.74-8.13s8.52-3.92,5.72-15.61C647.48,223.82,643.79,216.1,640.31,209Z" style="fill:#b56760"></path><path d="M638.83,220.57a1.52,1.52,0,0,1-.77,2,1.47,1.47,0,0,1-2-.67,1.53,1.53,0,0,1,.77-2A1.46,1.46,0,0,1,638.83,220.57Z" style="fill:#263238"></path><path d="M640.78,215.61c-.09.26-1.49-.09-3,.54s-2.31,1.85-2.55,1.73-.07-.45.27-1a4.24,4.24,0,0,1,1.94-1.61,4,4,0,0,1,2.49-.19C640.54,215.23,640.84,215.5,640.78,215.61Z" style="fill:#263238"></path><path d="M625.47,225.85a1.52,1.52,0,0,1-.77,2,1.47,1.47,0,0,1-2-.67,1.53,1.53,0,0,1,.77-2A1.46,1.46,0,0,1,625.47,225.85Z" style="fill:#263238"></path><path d="M627,221.61c-.1.25-1.49-.09-3,.54s-2.31,1.84-2.55,1.72-.07-.45.27-1a4.12,4.12,0,0,1,1.94-1.61,4,4,0,0,1,2.49-.2C626.71,221.22,627,221.49,627,221.61Z" style="fill:#263238"></path><path d="M635.6,229.77a13.84,13.84,0,0,1,2.32-1.39c.37-.19.71-.41.69-.64s-.28-.51-.61-.78l-2-1.79a65.36,65.36,0,0,1-4.93-4.88c.15-.12,2.6,1.87,5.47,4.44l2,1.83c.28.28.69.56.67,1.09a1.05,1.05,0,0,1-.46.71,3.71,3.71,0,0,1-.63.35A14.32,14.32,0,0,1,635.6,229.77Z" style="fill:#263238"></path><path d="M643.24,245.29a30.26,30.26,0,0,1-16.31,2.15s6.92,6.11,17.47.54Z" style="fill:#8a4a43"></path><path d="M624.36,216.77c0,.53-1.42.73-3,1.49s-2.65,1.75-3,1.37c-.16-.19-.08-.72.3-1.37a4.65,4.65,0,0,1,2-1.8,4.2,4.2,0,0,1,2.56-.38C623.93,216.21,624.35,216.51,624.36,216.77Z" style="fill:#263238"></path><path d="M638.69,210.39c-.08.53-1.34.65-2.63,1.27s-2.21,1.45-2.67,1.16c-.21-.14-.24-.62.05-1.23a3.64,3.64,0,0,1,1.79-1.71,3.73,3.73,0,0,1,2.47-.25C638.36,209.81,638.71,210.14,638.69,210.39Z" style="fill:#263238"></path><path d="M631.65,232.79a6.63,6.63,0,0,0,.64,3.29,2.76,2.76,0,0,0,2.29,1.39,3.07,3.07,0,0,0,2.45-1.6A9,9,0,0,0,638,233C636,232.9,633.6,232.87,631.65,232.79Z" style="fill:#8a4a43"></path><path d="M636.64,237.09a2.64,2.64,0,0,1-2.11.5,3.64,3.64,0,0,1-2.18-1,3.79,3.79,0,0,1-1.06-2.76,3.44,3.44,0,0,1,.26-1.24l.05-.14h.15a26.53,26.53,0,0,1,4.4.21,6.41,6.41,0,0,1,1.73.38c0,.13-2.65-.29-6.11-.12l.21-.15a3.21,3.21,0,0,0-.22,1.09,3.45,3.45,0,0,0,.9,2.44,3.51,3.51,0,0,0,1.92,1A5.41,5.41,0,0,0,636.64,237.09Z" style="fill:#263238"></path><path d="M610.43,230.09c-.2,0-7.55.84-4.52,7.43s9,2.19,8.94,2S610.43,230.09,610.43,230.09Z" style="fill:#b56760"></path><path d="M611.69,237.94s-.08.14-.23.31a1.25,1.25,0,0,1-.85.42,3.16,3.16,0,0,1-2.49-1.95,4.12,4.12,0,0,1-.43-1.79,1.48,1.48,0,0,1,.46-1.28.64.64,0,0,1,.82,0c.17.14.19.29.23.29s.09-.18-.09-.43a.73.73,0,0,0-.44-.29,1,1,0,0,0-.72.12,1.8,1.8,0,0,0-.73,1.58,4.32,4.32,0,0,0,.45,2c.65,1.3,1.9,2.23,3,2.07a1.34,1.34,0,0,0,1-.66C611.75,238.11,611.72,237.94,611.69,237.94Z" style="fill:#8a4a43"></path><path d="M599.56,216.61l9.88,17.33c.53.93,1.27,2,2.34,1.94,1.38-.06,1.92-1.83,2-3.21.19-7.67-3.25-14.91-6.73-21.74" style="fill:#263238"></path><path d="M604.67,222.18a7.09,7.09,0,1,1-5.61-13,7.31,7.31,0,0,1,10.49-9.46,15.26,15.26,0,0,1,10-10.46c4.07-1.3,8.87-.77,12.09,2,0,0,5.5-1,7.66,3.2,2.52,4.91-1,7-1,7a2.57,2.57,0,0,1,1.62,2.89,6.86,6.86,0,0,1-2.7,3.68,9.31,9.31,0,0,1-9.6-.43,5.44,5.44,0,0,1-9.82,3.45,6.8,6.8,0,0,1-9.47,5.23,6.89,6.89,0,0,1-3.76,5.72" style="fill:#263238"></path><path d="M678.28,336.44l-3.35-30.15-3.5-47.82.59-25.29L651.58,235l-2.24,9.54-4.64,4.62c2.66,9.43-14.41,13.93-24.54,7.4-5.87,1.09-14.82,7-17,9.65l-18.7,24.52,22,9.76,5.51-7.93,2.42,23.1-2.33,19.77Z" style="fill:#407BFF"></path><path d="M600.92,298c-.74.56-5.42,6-5.42,6l16.69,15.84-5.78,10.5s-26.73-15.79-28.59-20.45,4.12-12.84,6-16.19l1.85-2.51Z" style="fill:#b56760"></path><polygon points="582.76 461.76 589.23 439.38 609.59 445.92 598.41 466.87 586.92 466.87 582.76 461.76" style="fill:#e0e0e0"></polygon><path d="M581.66,461.76l0,1.25s-21.53,7.86-21.88,11.88l42.2,1.13-.2-14.06A24.16,24.16,0,0,1,581.66,461.76Z" style="fill:#407BFF"></path><path d="M601.94,476l-.05-3.38-40.43.16s-1.9.76-1.72,2.09Z" style="fill:#e0e0e0"></path><path d="M581.8,468.07c.06,0,.16-.29.15-.81a4.18,4.18,0,0,0-.56-1.9,4.09,4.09,0,0,0-1.36-1.43c-.44-.27-.75-.34-.77-.28a9.87,9.87,0,0,1,1.74,1.94A9.62,9.62,0,0,1,581.8,468.07Z" style="fill:#263238"></path><path d="M584,467.65a3.56,3.56,0,0,0-.59-2.67,3.63,3.63,0,0,0-2-1.85c-.08.12.91.82,1.63,2.08A21.43,21.43,0,0,1,584,467.65Z" style="fill:#263238"></path><path d="M578.51,469a2.79,2.79,0,0,0,.21-2.28,2.86,2.86,0,0,0-1.2-1.95c-.1.08.5.89.76,2.05S578.38,469,578.51,469Z" style="fill:#263238"></path><path d="M579.16,464a2.63,2.63,0,0,0,.73-1.39,8.52,8.52,0,0,0,.25-1.69c0-.32,0-.66,0-1a2.9,2.9,0,0,0,0-.57.81.81,0,0,0-.42-.58.64.64,0,0,0-.75.18,1.34,1.34,0,0,0-.28.54,4.83,4.83,0,0,0-.2,1,5.15,5.15,0,0,0,.14,1.72,2.65,2.65,0,0,0,.7,1.4c.07,0-.22-.55-.39-1.47a5.66,5.66,0,0,1,0-1.61,4.47,4.47,0,0,1,.2-.92c.08-.3.3-.54.42-.45s.21.39.2.74v1a9.56,9.56,0,0,1-.15,1.64C579.41,463.49,579.1,464,579.16,464Z" style="fill:#263238"></path><path d="M578.87,463.91s.06.07.22.15l.12.07,0-.16a5.08,5.08,0,0,0-.71-1.62,6.47,6.47,0,0,0-.88-1.09,7.54,7.54,0,0,0-.59-.52,1.5,1.5,0,0,0-.42-.24.71.71,0,0,0-.58.07.6.6,0,0,0-.2.71,2.46,2.46,0,0,0,.26.49,6.5,6.5,0,0,0,.61.74,5.54,5.54,0,0,0,1.28,1,2.61,2.61,0,0,0,1.4.45c0-.07-.51-.24-1.23-.72a6.27,6.27,0,0,1-1.14-1,5.67,5.67,0,0,1-.55-.7c-.19-.26-.28-.55-.18-.57s.71.34,1,.62a7.69,7.69,0,0,1,.88,1,11.08,11.08,0,0,1,.88,1.47l.09-.09C579,463.89,578.88,463.88,578.87,463.91Z" style="fill:#263238"></path><polygon points="709.47 462.3 702.75 439.38 682.38 445.92 693.57 466.87 705.05 466.87 709.47 462.3" style="fill:#e0e0e0"></polygon><path d="M710.32,461.76l0,1.25s21.52,7.86,21.88,11.88L690,476l.2-14.06A24.16,24.16,0,0,0,710.32,461.76Z" style="fill:#407BFF"></path><path d="M690,476l0-3.38,40.44.16s1.9.76,1.72,2.09Z" style="fill:#e0e0e0"></path><path d="M710.18,468.07c-.06,0-.16-.29-.15-.81a4.15,4.15,0,0,1,.55-1.9,4.2,4.2,0,0,1,1.37-1.43c.44-.27.75-.34.77-.28a9.87,9.87,0,0,0-1.74,1.94A9.62,9.62,0,0,0,710.18,468.07Z" style="fill:#263238"></path><path d="M707.94,467.65a3.66,3.66,0,0,1,.6-2.67,3.6,3.6,0,0,1,2-1.85,22.12,22.12,0,0,0-1.63,2.08A22.72,22.72,0,0,0,707.94,467.65Z" style="fill:#263238"></path><path d="M713.47,469a3.62,3.62,0,0,1,1-4.23c.1.08-.5.89-.76,2.05S713.6,469,713.47,469Z" style="fill:#263238"></path><path d="M712.82,464a2.55,2.55,0,0,1-.73-1.39,8.52,8.52,0,0,1-.25-1.69c0-.32,0-.66,0-1a2.29,2.29,0,0,1,0-.57.78.78,0,0,1,.42-.58.64.64,0,0,1,.75.18,1.34,1.34,0,0,1,.28.54,4.83,4.83,0,0,1,.2,1,5.43,5.43,0,0,1-.14,1.72,2.65,2.65,0,0,1-.7,1.4c-.07,0,.22-.55.38-1.47a5.36,5.36,0,0,0-.16-2.53c-.08-.3-.3-.54-.42-.45s-.21.39-.2.74v1a10.8,10.8,0,0,0,.14,1.64C712.57,463.49,712.88,464,712.82,464Z" style="fill:#263238"></path><path d="M713.1,463.91s-.06.07-.21.15l-.13.07,0-.16a5.08,5.08,0,0,1,.71-1.62,6.47,6.47,0,0,1,.88-1.09,7.54,7.54,0,0,1,.59-.52,1.58,1.58,0,0,1,.41-.24.73.73,0,0,1,.59.07.6.6,0,0,1,.2.71,2,2,0,0,1-.27.49,5.45,5.45,0,0,1-1.88,1.72,2.63,2.63,0,0,1-1.4.45c0-.07.5-.24,1.23-.72a6.27,6.27,0,0,0,1.14-1,4.81,4.81,0,0,0,.54-.7c.2-.26.29-.55.19-.57s-.72.34-1,.62a7.69,7.69,0,0,0-.88,1,11.08,11.08,0,0,0-.88,1.47l-.09-.09C713,463.89,713.1,463.88,713.1,463.91Z" style="fill:#263238"></path><path d="M611.72,290.27a26.09,26.09,0,0,1-1.05-3.06c-.62-1.89-1.51-4.49-2.62-7.32s-2.25-5.33-3.09-7.13a22.73,22.73,0,0,1-1.32-2.95,16.52,16.52,0,0,1,1.65,2.79,73,73,0,0,1,3.24,7.1,74.89,74.89,0,0,1,2.49,7.41A16.73,16.73,0,0,1,611.72,290.27Z" style="fill:#263238"></path><path d="M665.68,247.88c0,.15-3.28-.7-7.33-1.46S651,245.25,651,245.1a8.32,8.32,0,0,1,2.2.06c1.35.12,3.21.36,5.25.75s3.86.84,5.16,1.22A9.17,9.17,0,0,1,665.68,247.88Z" style="fill:#263238"></path><path d="M664.38,250.29a14.91,14.91,0,0,1-2.48-.36c-1.51-.26-3.62-.58-5.95-.81s-4.46-.3-6-.32a15.31,15.31,0,0,1-2.5-.11,9.58,9.58,0,0,1,2.49-.26,46.83,46.83,0,0,1,12,1.14A9.64,9.64,0,0,1,664.38,250.29Z" style="fill:#263238"></path><path d="M658.41,285s0,.15-.21.42l-.7,1.16c-.61,1-1.53,2.42-2.68,4.17-2.31,3.5-5.59,8.27-9.38,13.43s-7.38,9.7-10,12.94c-1.33,1.62-2.42,2.92-3.19,3.8l-.9,1c-.21.23-.32.34-.34.33a2.06,2.06,0,0,1,.26-.4l.82-1.07,3.06-3.9c2.58-3.3,6.11-7.88,9.9-13s7.11-9.88,9.49-13.33c1.16-1.67,2.11-3,2.82-4.08.31-.43.57-.79.78-1.1A2.56,2.56,0,0,1,658.41,285Z" style="fill:#263238"></path><path d="M660.72,271.9a4.81,4.81,0,1,1-4.81-4.8A4.81,4.81,0,0,1,660.72,271.9Z" style="fill:#fff"></path><path d="M655.91,276.74a4.84,4.84,0,1,1,4.84-4.84A4.84,4.84,0,0,1,655.91,276.74Zm0-9.62a4.79,4.79,0,1,0,4.78,4.78A4.79,4.79,0,0,0,655.91,267.12Z" style="fill:#263238"></path><path d="M619.06,336.44c.14,0-3.12,10.92-7.28,24.28s-7.64,24.17-7.78,24.13,3.12-10.91,7.28-24.28S618.93,336.4,619.06,336.44Z" style="fill:#fff"></path><path d="M617.24,335.43c.13,0-3.13,10.91-7.29,24.28s-7.64,24.17-7.78,24.13,3.12-10.91,7.28-24.28S617.1,335.39,617.24,335.43Z" style="fill:#fff"></path><path d="M611.53,319.22l5.34,5.19,3.48,2s8.72,4.47,8.72,6.26c0,2.47-2.67,1-2.67,1L620.19,331s7.87,5.43,7.43,7.62c-.22,1-2.3,1-2.3,1l-5.51-3.38s5.66,5.36,4.48,6.89c-1.37,1.77-2.48.57-2.48.57l-5.6-4.74s4.56,6.53,2.57,7.52-2.94-1.8-2.94-1.8l-9.63-15.18Z" style="fill:#b56760"></path><path d="M640.9,174.81s-6.51-8.64-9.95-10.19-7.84-5.27-9.24-4.8-1.31,1.06-1.31,1.06-1.45-2.16-2.72-2.16-1.3.87-1.3.87-1.22-.85-1.89-.7c-1.09.24-1,1.52-1,1.52s-.46,1.09.08,1.75,2.69,3.24,2.69,3.24a1.32,1.32,0,0,0-.78,1.79c.57,1.26,8,9.31,12,10.77a19,19,0,0,0,7.42,1.16Z" style="fill:#b56760"></path><path d="M626.53,167a14.35,14.35,0,0,1-3.57-2.8,26.14,26.14,0,0,1-2.18-2.36c-.25-.29-.53-.64-.44-.94s.28-.32.28-.28-.09.11-.08.3.2.39.51.67c.77.77,1.49,1.47,2.27,2.23A32.89,32.89,0,0,1,626.53,167Z" style="fill:#8a4a43"></path><path d="M624.57,170.27s-.11.11-.34.24a2.2,2.2,0,0,1-1.13.3,2.24,2.24,0,0,1-1.48-.95,17.38,17.38,0,0,0-1.32-1.48,23.11,23.11,0,0,0-2.73-2.35,4.41,4.41,0,0,0-.92-.54c-.22-.1-.34-.05-.37-.09s.13-.16.42-.11a3.21,3.21,0,0,1,1.07.43,14.7,14.7,0,0,1,2.9,2.29c1.07,1,1.63,2.34,2.47,2.43a2.77,2.77,0,0,0,1-.12C624.41,170.25,624.56,170.23,624.57,170.27Z" style="fill:#8a4a43"></path><path d="M630.41,173.14a6.47,6.47,0,0,1-2.81-2.66,6.27,6.27,0,0,1-1.25-3.66c.15,0,.55,1.64,1.69,3.38S630.51,173,630.41,173.14Z" style="fill:#8a4a43"></path><path d="M623.65,167.53a30.45,30.45,0,0,1-7.46-8,52.33,52.33,0,0,1,3.75,4A53.24,53.24,0,0,1,623.65,167.53Z" style="fill:#8a4a43"></path></g><g id="freepik--character-3--inject-2"><path d="M422,325.66l-7.15,51.52s-9.25,32.62-9.92,45-1,39.33-1,39.33c6.73,2.71,15.23,2.81,21.28-.56,0,0,10.53-53.19,14.56-66.94s7.6-21.82,10.61-30.88S460.61,337,460.61,337Z" style="fill:#ffbf9d"></path><path d="M487.55,346.91s13.28,36.35,12.94,48.09.34,19.78,4,30.85,9.39,37.22,9.39,37.22l19.45-2.68s-.67-54-4.36-63.88-5.36-26.66-5.36-26.66l-.28-40.59Z" style="fill:#ffbf9d"></path><path d="M431.32,275.91c-.64,2.54-6.37,29.29-8.28,42.66S420,337.69,420,337.69l36.18,9.53c.64-1.91,17.83-40.11,17.83-40.11l14.09,41.35,35.57-14.61s-1.91-40.75-10.82-60.49S496.26,246,496.26,246Z" style="fill:#455a64"></path><path d="M393.18,70.7s31.56,35.42,36.7,43.13,24,58.35,24,58.35l-23.62,1.46-18.35-53L383.64,77.5Z" style="fill:#ffbf9d"></path><path d="M352.81,46.41c0-.62.6-3,2.77-1s17.95,15,19.34,15.79,18.26,9.49,18.26,9.49l-7,9.91-3.4-3.81s-3.75,1.19-8.68-1.38-14.61-7.89-15.2-9.47-.2-4,2.37-3.28A32.55,32.55,0,0,1,366.83,65s-4.15-5.52-6.32-7.89S352.81,49.17,352.81,46.41Z" style="fill:#ffbf9d"></path><path d="M353.26,184.29c.17-2.95.54-17.3.71-19.48a12.07,12.07,0,0,1,3.61-7.89,7.54,7.54,0,0,1,8.18-1.57h0a5.06,5.06,0,0,1,3.62,3.54c6,21.47,5.08,44.32,7.75,66.52-7.88,1.28-18.49.76-26.46.34C350.67,208,352.17,203.42,353.26,184.29Z" style="fill:#263238"></path><path d="M356.58,214.55a2.41,2.41,0,0,0,.07-.57c0-.44,0-1,.07-1.65,0-1.5.11-3.55.19-6.05.11-5.18.25-12.21.42-20,.06-3.9.11-7.62.16-11,0-1.68,0-3.29.06-4.8a24,24,0,0,1,.29-4.13,6.72,6.72,0,0,1,3.07-4.85,5.32,5.32,0,0,1,2.08-.64l-.15,0a2,2,0,0,0-.43,0,4.18,4.18,0,0,0-1.6.48,5.87,5.87,0,0,0-2,1.74,7.88,7.88,0,0,0-1.35,3.22,23.74,23.74,0,0,0-.36,4.2c0,1.5-.06,3.11-.1,4.8-.07,3.38-.14,7.1-.21,11-.1,7.77-.2,14.8-.27,20,0,2.5,0,4.56,0,6.06,0,.67,0,1.21,0,1.65A3.22,3.22,0,0,0,356.58,214.55Z" style="fill:#455a64"></path><path d="M363.75,206.41a6.35,6.35,0,0,0,.09-1.29c0-.83.05-2,.05-3.53,0-3-.06-7.09-.17-11.63s-.24-8.54-.32-11.63c0-1.4-.09-2.58-.12-3.52a6.13,6.13,0,0,0-.11-1.29,6.35,6.35,0,0,0-.09,1.29c0,.84-.05,2-.05,3.53,0,3,.06,7.09.17,11.63s.24,8.55.32,11.63c.05,1.4.09,2.58.12,3.52A6.13,6.13,0,0,0,363.75,206.41Z" style="fill:#455a64"></path><path d="M368.4,157.39c-.75-2.28-2.58-4-3.81-6.08-2.71-4.54-2.07-10.45.44-15.11,2.34-4.32,6.91-7.49,12.27-9.55a21,21,0,0,1,11.6-1.19A16.44,16.44,0,0,1,400.53,135l-23.28,13.8c-.64,3.19-1.31,6.45-2.95,9.26a5.57,5.57,0,0,1-1.9,2.1,2.49,2.49,0,0,1-2.7,0C368.88,159.54,368.72,158.38,368.4,157.39Z" style="fill:#263238"></path><path d="M368.83,131.41c-5.18,2.91-7.77,7.91-9.54,13.58a29.39,29.39,0,0,0,.28,17.56c1.91,6,6.78,12.9,11.91,16.48a18.22,18.22,0,0,0,16.69,2.41c8.06-2.85,15.1-9,17.16-17.26s-.26-17.39-5.38-24.24a28.26,28.26,0,0,0-14-10.25,21.48,21.48,0,0,0-17.08,1.72" style="fill:#263238"></path><path d="M416.1,175.21l2.82,3.85,3.5,21.1-24.23-5.63-31.1-37.75a4.36,4.36,0,0,1,.48-5.88l15.07-18.55c5.48-5.06,14.9-.69,19.73,5,5.36,6.32,11.66,14.24,14.57,19.78,5.84,11.13-.84,18.08-.84,18.08" style="fill:#ffbf9d"></path><path d="M404,147.91a1.6,1.6,0,0,1-.27,2.2,1.53,1.53,0,0,1-2.18-.17,1.6,1.6,0,0,1,.27-2.2A1.53,1.53,0,0,1,404,147.91Z" style="fill:#263238"></path><path d="M403.83,142.83c0,.29-1.54.29-2.91,1.32s-1.86,2.47-2.14,2.41c-.13,0-.19-.44,0-1.09a4.37,4.37,0,0,1,1.56-2.13,4.17,4.17,0,0,1,2.47-.84C403.48,142.51,403.85,142.7,403.83,142.83Z" style="fill:#263238"></path><path d="M391.25,157.7a1.58,1.58,0,0,1-.27,2.2,1.52,1.52,0,0,1-2.17-.16,1.6,1.6,0,0,1,.27-2.21A1.52,1.52,0,0,1,391.25,157.7Z" style="fill:#263238"></path><path d="M390.6,153.07c0,.29-1.54.29-2.9,1.32s-1.87,2.47-2.14,2.41-.2-.44,0-1.09a4.34,4.34,0,0,1,1.55-2.13,4.12,4.12,0,0,1,2.47-.84C390.25,152.75,390.62,152.94,390.6,153.07Z" style="fill:#263238"></path><path d="M402.78,159.36a11.25,11.25,0,0,1,1.93-2.07c.32-.29.6-.61.48-.89s-.53-.59-1-.87l-3-1.9c-4.27-2.72-7.65-5.07-7.53-5.24s3.66,1.9,7.94,4.63l3,1.94c.42.3,1,.58,1.2,1.24a1.1,1.1,0,0,1-.19.94,2.94,2.94,0,0,1-.53.53A11.78,11.78,0,0,1,402.78,159.36Z" style="fill:#263238"></path><path d="M416.1,175.21a34.64,34.64,0,0,1-16.23,6.07s8.49,4.39,17.75-4Z" style="fill:#ff9a6c"></path><path d="M386.66,149.41c.14.47-1.36,1.32-2.83,2.71s-2.44,2.81-2.9,2.63c-.22-.09-.25-.61,0-1.36a6.79,6.79,0,0,1,4.36-4.07C386.07,149.11,386.59,149.19,386.66,149.41Z" style="fill:#263238"></path><path d="M399.13,137.41c0,.49-1.19.87-2.34,1.7s-2,1.78-2.41,1.62c-.22-.09-.3-.51-.1-1.12a4.21,4.21,0,0,1,3.83-2.68C398.75,137,399.12,137.17,399.13,137.41Z" style="fill:#263238"></path><path d="M362.79,157.28c-2.59-7.06-.45-21.26,5.8-25.44l13.86-1.67a11.58,11.58,0,0,1-.77,11.8c-1.28,1.81-3.19,3.51-3.07,5.72s2.38,3.94,2.61,6.19c.32,3.11-3.34,5.79-2.56,8.83.34,1.33,1.49,2.34,1.8,3.67.42,1.77-1.61,6-3.32,6.65s-3.53-1.71-4.93-2.59a8.2,8.2,0,0,1-3.57-4.19C367.09,163,364,160.65,362.79,157.28Z" style="fill:#263238"></path><path d="M382.09,171c-.55-.74-2.71-1.85-3.53-1.42-2.18,1.16-5.58,3.94-1.91,8.93,5,6.81,10.82.37,10.69.17S384,173.59,382.09,171Z" style="fill:#ffbf9d"></path><path d="M383.36,177.67c-.05,0-.06.17-.19.41a1.52,1.52,0,0,1-.88.67c-.91.26-2.36-.43-3.3-1.64a4.93,4.93,0,0,1-.92-1.94,1.69,1.69,0,0,1,.23-1.57.75.75,0,0,1,.94-.19c.23.12.28.29.33.27s.06-.22-.2-.46a1,1,0,0,0-.58-.23,1.17,1.17,0,0,0-.79.31,2.09,2.09,0,0,0-.46,2,4.94,4.94,0,0,0,1,2.2c1.05,1.35,2.7,2.11,3.89,1.67a1.54,1.54,0,0,0,1-1C383.47,177.84,383.39,177.66,383.36,177.67Z" style="fill:#ff9a6c"></path><path d="M363.89,170.86a7.72,7.72,0,0,1-1.84-1.78,18.68,18.68,0,0,1-4.23-11.42,7.54,7.54,0,0,1,.24-2.55c.19,0-.25,3.95,1.44,8.42S364.05,170.74,363.89,170.86Z" style="fill:#407BFF"></path><path d="M378.94,129.73c2.77,2.19,9.61,2.33,13.08,3,6.62,1.22,7.74,1.29,17.38,13.31a36.56,36.56,0,0,0-6.86-14.13,18.52,18.52,0,0,0-11.43-6.35,14.36,14.36,0,0,0-12.17,4.2" style="fill:#263238"></path><path d="M359.37,159.9a8.12,8.12,0,0,0,1.34-.62,16.05,16.05,0,0,0,1.52-.85c.58-.35,1.26-.73,1.95-1.23a40.67,40.67,0,0,0,4.7-3.72,45.49,45.49,0,0,0,4.95-5.42,44.46,44.46,0,0,0,3.93-6.21,40.21,40.21,0,0,0,2.36-5.51c.3-.8.48-1.55.67-2.2a15.85,15.85,0,0,0,.42-1.69,9.18,9.18,0,0,0,.25-1.46,9.25,9.25,0,0,0-.44,1.41c-.12.46-.28,1-.5,1.66s-.42,1.38-.74,2.16a43.51,43.51,0,0,1-2.43,5.42,44.24,44.24,0,0,1-8.79,11.5,44,44,0,0,1-4.59,3.77c-.67.51-1.33.91-1.89,1.28s-1.05.68-1.46.91A9.46,9.46,0,0,0,359.37,159.9Z" style="fill:#455a64"></path><path d="M362.5,165.17a3.81,3.81,0,0,0,.91-.43,25,25,0,0,0,2.34-1.44,34.14,34.14,0,0,0,11.54-13.77,25,25,0,0,0,1-2.55,3.42,3.42,0,0,0,.26-1c-.08,0-.57,1.32-1.59,3.38A38.17,38.17,0,0,1,365.54,163C363.69,164.38,362.45,165.09,362.5,165.17Z" style="fill:#455a64"></path><path d="M361,166.68a4.86,4.86,0,0,0,.57,1.17,33.3,33.3,0,0,0,1.95,3c.88,1.21,2,2.62,3.31,4.1a33.59,33.59,0,0,0,4.7,4.44,17,17,0,0,0,11.12,3.33,16.13,16.13,0,0,0,3.5-.65,5.23,5.23,0,0,0,1.22-.45,7,7,0,0,0-1.27.25,20,20,0,0,1-3.48.49,15.6,15.6,0,0,1-5.11-.62,17.3,17.3,0,0,1-5.67-2.76,37.13,37.13,0,0,1-4.66-4.35c-1.33-1.45-2.45-2.82-3.37-4s-1.61-2.17-2.07-2.86A8,8,0,0,0,361,166.68Z" style="fill:#455a64"></path><path d="M405.87,165.67c-.05-1.16-.17-2.87-1.25-2.67-.55.14-3.25.81-3.79,1a1.63,1.63,0,0,0-1.11,1.18,1.46,1.46,0,0,0,0,.55,2.69,2.69,0,0,0,1,1.55,4.38,4.38,0,0,0,3.18.63,2.36,2.36,0,0,0,1.61-.65A2.31,2.31,0,0,0,405.87,165.67Z" style="fill:#ff9a6c"></path><path d="M406.08,167.19a2.79,2.79,0,0,1-1.84,1.06,4.24,4.24,0,0,1-2.36-.15,4.17,4.17,0,0,1-2.23-1.85,2.2,2.2,0,0,1-.26-1.57,1.52,1.52,0,0,1,1.13-1c.86-.21,1.6-.35,2.24-.48a8.46,8.46,0,0,1,2.07-.3,8.08,8.08,0,0,1-2,.66l-2.18.58a1,1,0,0,0-.77.69,1.67,1.67,0,0,0,.22,1.19,3.86,3.86,0,0,0,1.94,1.65,4,4,0,0,0,2.12.23A7.36,7.36,0,0,0,406.08,167.19Z" style="fill:#263238"></path><path d="M394.71,188.77l-.34,9.2s-11.06,16.45-11.32,16.45-8.4,28.05-8.4,28.05l23.26,10.45,6.5-14.19L429,252.92v8L424.72,291s12.64,4.49,30.85-2.3S504,255.94,504,255.94L480.4,218.45S462.1,185,459.07,180.66s-9.21-26.55-9.21-26.55L423,150.73l.91,14.69s-2.65,4.19-1.94,7.28l-2,2.82.71,16.63Z" style="fill:#407BFF"></path><path d="M376.74,243.53s-7,19.52-6.72,27.89,48.45,14.36,48.45,14.36l1.5-13.46-30.21-7.47L395,251.73Z" style="fill:#ffbf9d"></path><path d="M426.78,274.31s3.48-7.54,4.93-8.61,13.72-7.15,13.72-7.15,1.94,3.1-1,4.64-7.25,3.24-7.25,3.24l-.8,3.14,4.76-3.14h9.62s2.36,2.85-.73,3.43-8.41.87-8.41.87l-4.92,3.58,14.06-2.13a2.64,2.64,0,0,1-1.5,3.57c-2.61,1.36-11.89,3.19-11.89,3.19l-.48,1.16,9.76-.87a1.82,1.82,0,0,1,0,2.71c-1.45,1.26-11.21,2.32-11.21,2.32a9.87,9.87,0,0,1-4.16,3.57c-2.51,1-5.5-.48-5.5-.48l-8.57-1.57.37-13.74Z" style="fill:#ffbf9d"></path><path d="M403.62,460.16v1.48s-24.14,10.3-24.35,15.05l48.11-.73-1.85-16.51C418.44,463,411.92,463.45,403.62,460.16Z" style="fill:#455a64"></path><g style="opacity:0.6000000000000001"><path d="M421.71,464.79a2,2,0,0,1,1.39,2.29,1.89,1.89,0,0,1-2.19,1.45,2.14,2.14,0,0,1-1.46-2.44,1.93,1.93,0,0,1,2.44-1.24" style="fill:#fff"></path></g><g style="opacity:0.6000000000000001"><path d="M427.39,476l-.21-4-46,2.16s-2.13,1-1.86,2.55Z" style="fill:#fff"></path></g><path d="M403.47,461.78c0,.24,1.18.33,2.35,1.1s1.8,1.77,2,1.67-.15-1.49-1.58-2.39S403.41,461.56,403.47,461.78Z" style="fill:#263238"></path><path d="M398.45,464c-.05.24,1,.64,1.79,1.65s1.05,2.1,1.29,2.09.36-1.39-.67-2.64S398.45,463.78,398.45,464Z" style="fill:#263238"></path><path d="M395.67,470.3c.22.05.53-1.17-.1-2.49s-1.72-1.83-1.82-1.63.59.9,1.09,2S395.44,470.28,395.67,470.3Z" style="fill:#263238"></path><path d="M534.55,459.63v1.47s24.14,10.3,24.35,15.06l-48.11-.73,1.85-16.51C519.74,462.45,526.25,462.92,534.55,459.63Z" style="fill:#455a64"></path><g style="opacity:0.6000000000000001"><path d="M516.47,464.25a2,2,0,0,0-1.4,2.3,1.9,1.9,0,0,0,2.19,1.45,2.16,2.16,0,0,0,1.47-2.44,2,2,0,0,0-2.44-1.25" style="fill:#fff"></path></g><g style="opacity:0.6000000000000001"><path d="M510.78,475.43l.21-4,46,2.16s2.13,1,1.86,2.55Z" style="fill:#fff"></path></g><path d="M534.71,461.25c0,.24-1.19.33-2.36,1.1s-1.79,1.77-2,1.67.16-1.5,1.58-2.4S534.76,461,534.71,461.25Z" style="fill:#263238"></path><path d="M539.72,463.48c0,.24-1,.63-1.78,1.65s-1.06,2.1-1.29,2.08-.37-1.39.67-2.63S539.72,463.25,539.72,463.48Z" style="fill:#263238"></path><path d="M542.5,469.77c-.21.05-.52-1.17.1-2.49s1.73-1.84,1.82-1.63-.59.9-1.08,2S542.73,469.75,542.5,469.77Z" style="fill:#263238"></path><path d="M374.86,72.57a3.65,3.65,0,0,1-.68-.69c-.4-.49-1-1.21-1.59-2.16a75.73,75.73,0,0,1-4.5-7.94l.06.08c-.83-.74-1.67-1.53-2.5-2.39-1.56-1.62-2.89-3.3-4.14-4.77A48.53,48.53,0,0,0,358,51a9.32,9.32,0,0,1-1.39-1.44,1.55,1.55,0,0,1-.23-1.52,1.09,1.09,0,0,1,.72-.66c.23,0,.35,0,.34,0s-.12,0-.31.07a1,1,0,0,0-.56.63,1.38,1.38,0,0,0,.27,1.29,11.58,11.58,0,0,0,1.41,1.33,39.56,39.56,0,0,1,3.64,3.67c1.29,1.45,2.61,3.12,4.16,4.72.81.84,1.64,1.63,2.46,2.37l0,0,0,.05c1.59,3.26,3.13,6,4.31,8,.59,1,1.11,1.71,1.46,2.23A3.8,3.8,0,0,1,374.86,72.57Z" style="fill:#ff9a6c"></path><path d="M425,281.85a38.73,38.73,0,0,1,1.08-3.72c.56-2.05.8-3.77,1-3.76a13.14,13.14,0,0,1-2,7.48Z" style="fill:#ff9a6c"></path><path d="M385,227a15.62,15.62,0,0,1,2.87,1.34A71.38,71.38,0,0,1,400.49,237a15.66,15.66,0,0,1,2.29,2.17,23.3,23.3,0,0,1-2.52-1.89c-1.54-1.19-3.68-2.81-6.13-4.48s-4.74-3.07-6.41-4.06A22.85,22.85,0,0,1,385,227Z" style="fill:#263238"></path><path d="M423.37,195.17a10.78,10.78,0,0,1-1.59-.14l-4.33-.59.21-.23c.72,2.53,1.64,5.73,2.67,9.3l.12.42-.42-.11-4.95-1.19c-5.57-1.34-10.6-2.59-14.24-3.51L396.55,198a8.22,8.22,0,0,1-1.56-.48,10.56,10.56,0,0,1,1.6.29l4.34,1c3.66.83,8.7,2,14.27,3.37l4.95,1.2-.3.32c-1-3.59-1.85-6.8-2.55-9.34l-.07-.28.28.05,4.3.75A9.58,9.58,0,0,1,423.37,195.17Z" style="fill:#263238"></path><path d="M421.14,174.67a6.35,6.35,0,0,1,.66,1l1.63,2.9c1.35,2.46,3.19,5.87,5.19,9.65.39.75.78,1.48,1.15,2.18l.22.43-.47-.05a21.17,21.17,0,0,1-8.27-2.58l.26-.15a16.55,16.55,0,0,0,.49,4.32,3.55,3.55,0,0,1-.43-1.11,11.09,11.09,0,0,1-.42-3.22v-.3l.27.14a22.26,22.26,0,0,0,8.15,2.39l-.25.37c-.38-.7-.77-1.43-1.16-2.17-2-3.79-3.79-7.23-5.06-9.73l-1.48-3A5.51,5.51,0,0,1,421.14,174.67Z" style="fill:#263238"></path><path d="M449.13,173.26c0,.07-1.26-.49-3.27-1.3a80.32,80.32,0,0,0-8-2.74,77.82,77.82,0,0,0-8.26-1.82,34.53,34.53,0,0,1-3.47-.59,3.5,3.5,0,0,1,.95,0c.61,0,1.49.11,2.57.24A57.11,57.11,0,0,1,446,171.62c1,.46,1.79.85,2.32,1.14A3.2,3.2,0,0,1,449.13,173.26Z" style="fill:#263238"></path><path d="M457.13,239.31a4.62,4.62,0,0,1,.83-.37l.07.16A131.49,131.49,0,0,1,444.71,246c-4,1.8-7.71,3.24-10.42,4.2-1.35.49-2.46.86-3.23,1.09a5,5,0,0,1-1.21.32,6.65,6.65,0,0,1,1.15-.51l3.16-1.24c2.67-1.05,6.34-2.55,10.34-4.34,6.36-2.84,11.6-5.61,13.45-6.52l.07.15A3.42,3.42,0,0,1,457.13,239.31Z" style="fill:#263238"></path><path d="M479.06,242.88c0,.14-9.77,2.36-21.88,5s-22,4.6-22,4.46,9.77-2.36,21.89-5S479,242.74,479.06,242.88Z" style="fill:#263238"></path></g><g id="freepik--character-2--inject-2"><path d="M212.55,251.07c.08-.82.95-1.25,1.64-1.67,2.61-1.62,3.55-5,3.77-8.16.32-4.39-.32-8.84.28-13.19s2.84-8.9,6.87-10.35c3.38-1.22,7.34.12,9.81,2.8l4.16,10.59a32.53,32.53,0,0,1-7.32,22.82c-1.79,2.14-4.07,4.13-6.8,4.35a3.44,3.44,0,0,1-2.69-.77c-1.22-1.18-.94-3.2-.56-4.88a13,13,0,0,1-7.3.23C213.52,252.6,212.47,252,212.55,251.07Z" style="fill:#263238"></path><path d="M238.65,218.9a2.14,2.14,0,0,0-2.36-1,5.07,5.07,0,0,0-2.38,1.41,15.29,15.29,0,0,0-4.35,7.33,7,7,0,0,0,.15,4.74c.46,1,1.53,1.79,2.53,1.39s1.23-1.55,1.45-2.55a28.45,28.45,0,0,1,5.16-11.08" style="fill:#407BFF"></path><path d="M230.72,230.07c2.13-8,11.58-16.3,20.66-15.45,5.29-2.79,14.56-4,21.95.31-1.55.61-2.72.39-4.28,1,7.52,2,11.45,15.45,9.72,24.3l-25,23.49c-6.42-.33-12.33-4.33-16.39-9.5C232.2,247.65,228.59,238.08,230.72,230.07Z" style="fill:#263238"></path><path d="M271.15,223.49c-3.38-6-12.82-8.93-18.47-5.33L242,226.35a10.3,10.3,0,0,0-2.73,12.93l3.47,6.68,15.37,29.33h0s8.12,12.43,18.59,6.29c9.41-5.51,3.7-15.85,3.7-15.85l-4.07-7.6s7.71-4.23,4.28-15.29C278.89,237.34,274.9,230.14,271.15,223.49Z" style="fill:#ffbf9d"></path><path d="M273,234.36a1.46,1.46,0,0,1-.59,1.94,1.37,1.37,0,0,1-1.9-.53,1.47,1.47,0,0,1,.59-2A1.38,1.38,0,0,1,273,234.36Z" style="fill:#263238"></path><path d="M260.26,239.89a1.47,1.47,0,0,1-.58,2,1.38,1.38,0,0,1-1.9-.54,1.47,1.47,0,0,1,.58-1.94A1.37,1.37,0,0,1,260.26,239.89Z" style="fill:#263238"></path><path d="M271.57,230.48c-.05.21-1.14.61-2.24,1.69s-1.59,2.23-1.79,2.26-.09-.26.12-.77a6,6,0,0,1,1.34-1.92,5.4,5.4,0,0,1,1.87-1.23C271.35,230.34,271.6,230.38,271.57,230.48Z" style="fill:#263238"></path><path d="M259.67,237.82c-.18.15-1.42-.16-3.11.11s-2.87.94-3.07.85.08-.28.6-.58a6.87,6.87,0,0,1,2.44-.83,6.52,6.52,0,0,1,2.49.06C259.56,237.58,259.76,237.76,259.67,237.82Z" style="fill:#263238"></path><path d="M268.18,243.69a12.74,12.74,0,0,1,2.07-1.46c.33-.2.64-.43.61-.65s-.31-.47-.63-.71l-2-1.61c-.75-.59-4.73-4-5-4.42.14-.12,2.57,1.66,5.44,4l2,1.65c.28.25.68.49.7,1a1,1,0,0,1-.38.7,3.58,3.58,0,0,1-.56.37A13.44,13.44,0,0,1,268.18,243.69Z" style="fill:#263238"></path><path d="M276.4,258.16a27.57,27.57,0,0,1-15.13,2.95s6.9,5.48,16.41-.42Z" style="fill:#ff9a6c"></path><path d="M256.74,231.83c.06.51-1.28.77-2.67,1.59s-2.37,1.82-2.72,1.47c-.17-.16-.13-.68.18-1.32a4.33,4.33,0,0,1,1.74-1.84,3.89,3.89,0,0,1,2.37-.5C256.3,231.32,256.71,231.58,256.74,231.83Z" style="fill:#263238"></path><path d="M269.73,224.94c0,.51-1.21.69-2.37,1.36s-2,1.51-2.43,1.26c-.21-.13-.26-.59,0-1.19a3.46,3.46,0,0,1,1.56-1.74,3.41,3.41,0,0,1,2.3-.37C269.38,224.4,269.73,224.69,269.73,224.94Z" style="fill:#263238"></path><path d="M264.68,246.8a6.49,6.49,0,0,0,.83,3.12,2.61,2.61,0,0,0,2.24,1.21,2.83,2.83,0,0,0,2.18-1.66,8.7,8.7,0,0,0,.68-2.82C268.78,246.68,266.51,246.78,264.68,246.8Z" style="fill:#ff9a6c"></path><path d="M269.66,250.66a5,5,0,0,1-1.93.27,3.29,3.29,0,0,1-1.86-.86,3.39,3.39,0,0,1-1-2.3,3,3,0,0,1,.12-1.05l-.18.15c3.23-.35,5.72-.09,5.73-.21a5.63,5.63,0,0,0-1.65-.27,23.89,23.89,0,0,0-4.13,0l-.14,0,0,.14a3.63,3.63,0,0,0-.16,1.2,3.76,3.76,0,0,0,1.19,2.59,3.4,3.4,0,0,0,2.11.88A2.53,2.53,0,0,0,269.66,250.66Z" style="fill:#263238"></path><path d="M236.63,227.65a14,14,0,0,1,4-5,32.77,32.77,0,0,1,12.64-6.73l2.55-1.83c.73,5.17-2,14.67-5.76,18.1-1.2,1.09-2.61,2-3.3,3.52a7.31,7.31,0,0,0,.05,5.23,47.47,47.47,0,0,1,1.7,5.09,3.51,3.51,0,0,1-.14,2.27,2.48,2.48,0,0,1-2.4,1.22,4.61,4.61,0,0,1-2.58-1.18,16.53,16.53,0,0,1-3.55-5,37.41,37.41,0,0,1-3.4-7.56A12.43,12.43,0,0,1,236.63,227.65Z" style="fill:#263238"></path><path d="M244.6,245.36c-.18,0-7,1.22-3.72,7.37s8.6,1.61,8.52,1.43S244.6,245.36,244.6,245.36Z" style="fill:#ffbf9d"></path><path d="M246.33,252.82s-.06.14-.19.32a1.2,1.2,0,0,1-.77.44,3,3,0,0,1-2.47-1.73,4.35,4.35,0,0,1-.53-1.7,1.42,1.42,0,0,1,.34-1.25.59.59,0,0,1,.77,0c.18.13.2.27.24.27s.08-.18-.11-.41a.81.81,0,0,0-.44-.25.9.9,0,0,0-.66.15,1.71,1.71,0,0,0-.57,1.55,4.25,4.25,0,0,0,.55,1.92c.71,1.21,1.94,2,2.94,1.82a1.24,1.24,0,0,0,.87-.68C246.4,253,246.36,252.82,246.33,252.82Z" style="fill:#ff9a6c"></path><path d="M241.35,242.72a11,11,0,0,1-2.3-.29,8.47,8.47,0,0,1-2.47-1.12,8,8,0,0,1-2.45-2.59L234,239a7.8,7.8,0,0,0,4.55-.74l.36-.18-.37-.18a6.47,6.47,0,0,1-3.21-3.81l-.21.29a17.74,17.74,0,0,0,5.42-.76,18,18,0,0,0,7.9-4.88A18.53,18.53,0,0,0,253.27,217a12.81,12.81,0,0,0,0-1.43,1.61,1.61,0,0,0-.06-.49s0,.68-.1,1.91a19.35,19.35,0,0,1-1.09,5,18.38,18.38,0,0,1-3.91,6.42,17.76,17.76,0,0,1-13,5.49h-.29l.09.29a6.89,6.89,0,0,0,3.45,4v-.36a7.48,7.48,0,0,1-4.33.75l-.35,0,.19.3a8,8,0,0,0,2.6,2.65,7.84,7.84,0,0,0,2.56,1.07,7.05,7.05,0,0,0,1.75.18A2,2,0,0,0,241.35,242.72Z" style="fill:#455a64"></path><path d="M274.9,220.57a1.5,1.5,0,0,0-.25-.5,9.74,9.74,0,0,0-.92-1.29,11.11,11.11,0,0,0-4.55-3.22l0,.37,4.1-.6.61-.09-.54-.31a21.21,21.21,0,0,0-14.71-2.6,18.36,18.36,0,0,0-3.24.92,5.82,5.82,0,0,0-1.12.53,34.07,34.07,0,0,1,4.42-1.13,22.07,22.07,0,0,1,10.85,1,22.87,22.87,0,0,1,3.59,1.67l.07-.4-4.1.65-.74.12.71.25a11.31,11.31,0,0,1,4.52,3C274.48,219.92,274.86,220.6,274.9,220.57Z" style="fill:#455a64"></path><path d="M243,383.14l-24,81.94s16.11,3.43,16.11,2.4S251.15,439,252,433.88a119.36,119.36,0,0,1,3.62-13.37l12.68-33.25Z" style="fill:#ffbf9d"></path><path d="M316.1,383.14l24,81.94S324,468.51,324,467.48,307.92,439,307,433.88a119.36,119.36,0,0,0-3.62-13.37l-12.69-33.25Z" style="fill:#ffbf9d"></path><path d="M272.82,189.08s22.15,20.38,27.53,39.53c3.92,13.94,1,32.89,1,32.89H285.54l.56-27.64-20.91-39.34Z" style="fill:#ffbf9d"></path><polygon points="248.81 347 236.59 384.21 270.81 389.99 280.33 371.62 288.56 391.01 322.11 386.22 310.08 340.13 261.96 342.12 251.55 342.69 248.81 347" style="fill:#263238"></polygon><path d="M312.58,344.92l-9.2-27.85.39-46.49.56-24.09-19.48,1.68-2.13,9.1-4.42,4.39c2.54,9-13.73,13.28-23.39,7-5.59,1-14.11,6.72-16.17,9.2l-17.83,23.36,21,9.31,5.25-7.56,2.3,22-5.78,18.78Z" style="fill:#407BFF"></path><path d="M236.59,308.23c-.71.53-5.18,5.75-5.18,5.75l15.91,15.09-5.51,10S216.35,324,214.57,319.59s3.93-12.23,5.7-15.43l1.5-2.24Z" style="fill:#ffbf9d"></path><polygon points="219.28 464.3 225.44 442.97 244.85 449.2 234.19 469.17 223.24 469.17 219.28 464.3" style="fill:#e0e0e0"></polygon><path d="M218.23,464.3l0,1.19s-20.51,7.49-20.85,11.32l40.21,1.08-.18-13.4A23,23,0,0,1,218.23,464.3Z" style="fill:#455a64"></path><path d="M237.55,477.89l0-3.22-38.53.15s-1.81.73-1.64,2Z" style="fill:#e0e0e0"></path><path d="M218.36,470.31c.06,0,.15-.28.14-.77a4,4,0,0,0-1.83-3.18c-.41-.25-.71-.31-.73-.26A9.14,9.14,0,0,1,217.6,468,9.27,9.27,0,0,1,218.36,470.31Z" style="fill:#263238"></path><path d="M220.49,469.91a4.31,4.31,0,0,0-2.49-4.3,19.46,19.46,0,0,1,1.55,2A22.3,22.3,0,0,1,220.49,469.91Z" style="fill:#263238"></path><path d="M215.23,471.19a2.7,2.7,0,0,0,.2-2.17,2.64,2.64,0,0,0-1.15-1.86c-.1.08.48.84.73,1.95S215.1,471.16,215.23,471.19Z" style="fill:#263238"></path><path d="M215.85,466.47a2.46,2.46,0,0,0,.69-1.32,8.71,8.71,0,0,0,.24-1.61c0-.31,0-.63,0-1a2.68,2.68,0,0,0,0-.55.76.76,0,0,0-.4-.55.6.6,0,0,0-.71.17,1.3,1.3,0,0,0-.27.52,4.94,4.94,0,0,0-.19,1,5.2,5.2,0,0,0,.13,1.64,2.52,2.52,0,0,0,.67,1.34c.06,0-.21-.53-.37-1.4a5.47,5.47,0,0,1,0-1.53,4,4,0,0,1,.19-.88c.08-.29.28-.52.39-.43s.21.37.2.71v.93a9.81,9.81,0,0,1-.14,1.56C216.08,466,215.79,466.44,215.85,466.47Z" style="fill:#263238"></path><path d="M215.57,466.35s.06.07.21.14l.12.06,0-.14a5.17,5.17,0,0,0-.68-1.55,6.84,6.84,0,0,0-.84-1,5.6,5.6,0,0,0-.57-.49,1.3,1.3,0,0,0-.39-.23.67.67,0,0,0-.56.07.59.59,0,0,0-.19.68,2.22,2.22,0,0,0,.26.46,5.78,5.78,0,0,0,.57.7,5.17,5.17,0,0,0,1.23.94,2.45,2.45,0,0,0,1.33.43c0-.07-.49-.23-1.17-.69a5.4,5.4,0,0,1-1.09-.95,4.42,4.42,0,0,1-.52-.67c-.19-.25-.27-.53-.18-.54s.68.32,1,.59a6.46,6.46,0,0,1,.84.94,10.61,10.61,0,0,1,.84,1.39l.09-.08C215.66,466.33,215.58,466.32,215.57,466.35Z" style="fill:#263238"></path><polygon points="340.02 464.81 333.62 442.97 314.21 449.2 324.87 469.17 335.81 469.17 340.02 464.81" style="fill:#e0e0e0"></polygon><path d="M340.83,464.3l0,1.19s20.51,7.49,20.85,11.32l-40.22,1.08.19-13.4A23,23,0,0,0,340.83,464.3Z" style="fill:#455a64"></path><path d="M321.5,477.89l.05-3.22,38.52.15s1.81.73,1.65,2Z" style="fill:#e0e0e0"></path><path d="M340.69,470.31c-.05,0-.15-.28-.14-.77a4,4,0,0,1,1.83-3.18c.42-.25.72-.31.74-.26a9.14,9.14,0,0,0-1.66,1.85A9.55,9.55,0,0,0,340.69,470.31Z" style="fill:#263238"></path><path d="M338.57,469.91a3.36,3.36,0,0,1,.56-2.54,3.46,3.46,0,0,1,1.92-1.76,21.26,21.26,0,0,0-1.55,2A18.85,18.85,0,0,0,338.57,469.91Z" style="fill:#263238"></path><path d="M343.83,471.19a3.46,3.46,0,0,1,.94-4c.1.08-.47.84-.72,1.95S344,471.16,343.83,471.19Z" style="fill:#263238"></path><path d="M343.21,466.47a2.39,2.39,0,0,1-.69-1.32,7.29,7.29,0,0,1-.24-1.61c0-.31,0-.63,0-1a3.63,3.63,0,0,1,0-.55.75.75,0,0,1,.41-.55.6.6,0,0,1,.71.17,1.3,1.3,0,0,1,.27.52,4.7,4.7,0,0,1,.05,2.6,2.56,2.56,0,0,1-.66,1.34c-.07,0,.21-.53.36-1.4a5.09,5.09,0,0,0,0-1.53,4.62,4.62,0,0,0-.19-.88c-.08-.29-.29-.52-.4-.43s-.2.37-.19.71v.93a9.9,9.9,0,0,0,.13,1.56C343,466,343.27,466.44,343.21,466.47Z" style="fill:#263238"></path><path d="M343.48,466.35s-.06.07-.2.14l-.12.06,0-.14a4.92,4.92,0,0,1,.68-1.55,6.28,6.28,0,0,1,.84-1,6.77,6.77,0,0,1,.56-.49,1.61,1.61,0,0,1,.39-.23.66.66,0,0,1,.56.07.56.56,0,0,1,.19.68,2.21,2.21,0,0,1-.25.46,5.83,5.83,0,0,1-.58.7,5.13,5.13,0,0,1-1.22.94,2.45,2.45,0,0,1-1.33.43c0-.07.48-.23,1.17-.69a5.68,5.68,0,0,0,1.09-.95,5.17,5.17,0,0,0,.52-.67c.18-.25.27-.53.17-.54s-.68.32-1,.59a6.36,6.36,0,0,0-.83.94,11,11,0,0,0-.85,1.39l-.08-.08C343.39,466.33,343.48,466.32,343.48,466.35Z" style="fill:#263238"></path><path d="M246.87,300.88a22.89,22.89,0,0,1-1-2.91c-.59-1.8-1.43-4.28-2.5-7s-2.13-5.08-2.94-6.8a23.33,23.33,0,0,1-1.25-2.81,15.41,15.41,0,0,1,1.58,2.65,69,69,0,0,1,3.1,6.77,66.7,66.7,0,0,1,2.36,7.06A14.12,14.12,0,0,1,246.87,300.88Z" style="fill:#263238"></path><path d="M298.29,260.49c0,.15-3.13-.65-7-1.38s-7-1.11-7-1.27a8.37,8.37,0,0,1,2.1.05c1.29.11,3.06.34,5,.71s3.68.81,4.92,1.17A8.21,8.21,0,0,1,298.29,260.49Z" style="fill:#263238"></path><path d="M297.05,262.79a13.4,13.4,0,0,1-2.36-.34c-1.44-.24-3.45-.55-5.67-.76s-4.25-.29-5.72-.32a12.67,12.67,0,0,1-2.38-.11,9.66,9.66,0,0,1,2.38-.25,42.6,42.6,0,0,1,5.77.16,44.78,44.78,0,0,1,5.7.92A9,9,0,0,1,297.05,262.79Z" style="fill:#263238"></path><path d="M291.37,295.84a10.7,10.7,0,0,1-.87,1.51c-.58.95-1.45,2.31-2.55,4-2.2,3.34-5.32,7.89-8.93,12.79s-7,9.25-9.57,12.33c-1.27,1.55-2.31,2.79-3,3.63a11.81,11.81,0,0,1-1.18,1.27,11.41,11.41,0,0,1,1-1.4l2.91-3.73c2.46-3.14,5.83-7.5,9.44-12.4s6.77-9.42,9-12.7l2.69-3.88A12.08,12.08,0,0,1,291.37,295.84Z" style="fill:#263238"></path><path d="M293.57,283.39a4.59,4.59,0,1,1-4.58-4.58A4.58,4.58,0,0,1,293.57,283.39Z" style="fill:#fff"></path><path d="M289,288a4.61,4.61,0,1,1,4.6-4.6A4.61,4.61,0,0,1,289,288Zm0-9.16a4.56,4.56,0,1,0,4.55,4.56A4.56,4.56,0,0,0,289,278.83Z" style="fill:#263238"></path><path d="M254.54,344.31c.14.05-3,9.19-6.93,20.4s-7.29,20.28-7.42,20.23,3-9.18,6.93-20.4S254.41,344.27,254.54,344.31Z" style="fill:#fff"></path><path d="M252.8,343.47c.14,0-3,9.18-6.93,20.39s-7.29,20.28-7.42,20.23,3-9.18,6.93-20.4S252.67,343.42,252.8,343.47Z" style="fill:#fff"></path><path d="M246.69,328.48l5.09,4.93,3.32,1.89s8.31,4.26,8.31,6c0,2.36-2.55,1-2.55,1l-5.92-2.52s7.51,5.18,7.08,7.26c-.2,1-2.19.95-2.19.95l-5.25-3.23s5.4,5.11,4.27,6.57c-1.3,1.68-2.36.54-2.36.54l-5.34-4.52s4.34,6.22,2.45,7.17-2.8-1.72-2.8-1.72l-9.17-14.46Z" style="fill:#ffbf9d"></path><path d="M274.53,191s-6.12-8.91-9.49-10.6-7.61-5.61-9-5.21-1.35,1-1.35,1S253.3,174,252,174s-1.33.82-1.33.82-1.19-.9-1.87-.78c-1.09.19-1,1.48-1,1.48a1.94,1.94,0,0,0,0,1.75c.4.54,2.55,3.35,2.55,3.35a1.32,1.32,0,0,0-.86,1.75c.51,1.29,7.58,9.65,11.49,11.28a19,19,0,0,0,7.36,1.48Z" style="fill:#ffbf9d"></path><path d="M260.51,182.58a14.38,14.38,0,0,1-3.44-3,28.36,28.36,0,0,1-2.08-2.45c-.23-.3-.49-.66-.39-1s.29-.3.29-.26-.09.1-.09.3.18.39.47.69l2.18,2.33A31,31,0,0,1,260.51,182.58Z" style="fill:#ff9a6c"></path><path d="M258.42,185.8s-.11.11-.35.23a2.28,2.28,0,0,1-1.15.25,2.18,2.18,0,0,1-1.43-1,18.13,18.13,0,0,0-1.26-1.53,23.25,23.25,0,0,0-2.62-2.47,5,5,0,0,0-.9-.58c-.22-.1-.33-.06-.36-.1s.13-.16.42-.09a3.07,3.07,0,0,1,1,.47,14.82,14.82,0,0,1,2.8,2.42c1,1,1.53,2.41,2.36,2.53a2.47,2.47,0,0,0,1-.08C258.26,185.78,258.41,185.76,258.42,185.8Z" style="fill:#ff9a6c"></path><path d="M264.13,188.92a8.06,8.06,0,0,1-3.79-6.49c.15,0,.48,1.66,1.54,3.45S264.23,188.8,264.13,188.92Z" style="fill:#ff9a6c"></path><path d="M257.61,183a30.35,30.35,0,0,1-7.1-8.32,51.47,51.47,0,0,1,3.57,4.14A49.63,49.63,0,0,1,257.61,183Z" style="fill:#ff9a6c"></path></g><g id="freepik--character-1--inject-2"><path d="M63.94,376.59l-25.18,86s16.91,3.59,16.91,2.51,16.86-29.86,17.78-35.25a124,124,0,0,1,3.8-14l13.31-34.9Z" style="fill:#ffbf9d"></path><path d="M140.69,376.59l25.19,86S149,466.17,149,465.09s-16.86-29.86-17.79-35.25a124,124,0,0,0-3.8-14l-13.31-34.9Z" style="fill:#ffbf9d"></path><path d="M95.27,172.94s23.24,21.39,28.89,41.48c4.12,14.63,1.06,34.52,1.06,34.52H108.63l.57-29L87.27,178.65Z" style="fill:#ffbf9d"></path><polygon points="69.37 339.63 56.55 383.99 92.45 390.88 101.42 366.21 111.08 392.09 146.29 386.37 133.66 331.45 83.17 333.83 72.25 334.51 69.37 339.63" style="fill:#263238"></polygon><path d="M74.81,221.88a24.92,24.92,0,0,0-16-8.84l.3-.51a10.42,10.42,0,0,0-9,10.93,34.66,34.66,0,0,0,1.67,6.2c.59,2.06.88,4.36,0,6.29-.49,1-1.3,1.88-1.86,2.88a3.22,3.22,0,0,0-.19,3.25c.81,1.22,2.61,1.24,4,.79s2.73-1.24,4.2-1.17a4.57,4.57,0,1,0,8.3,3.84,5.55,5.55,0,0,0,5.34,4.62A8,8,0,0,0,78,246.6a14.38,14.38,0,0,0,2.3-7.26A24.87,24.87,0,0,0,74.81,221.88Z" style="fill:#263238"></path><path d="M98.94,196.21a4.65,4.65,0,0,0-4.76-1.53,13.7,13.7,0,0,0-4.69,2.38,17.7,17.7,0,0,0-2.17-6.67c-1.29-2-3.66-3.42-6-2.92-2,.43-3.41,2.14-4.41,3.91s-1.72,3.72-3.07,5.23c-3.52,3.92-9.85,3.59-14.2,6.57s-6.2,10.41-3.39,15c9.29-.37,18.66-.74,27.8.94,4.94.91,10.43,2.31,14.68-.36a8.72,8.72,0,0,0-1-15.3C99.1,201.25,100.44,198.34,98.94,196.21Z" style="fill:#263238"></path><path d="M95.75,210.72c-3.25-6.23-13-9.57-19.07-6.07l-19,13.12,1.59,3.41,20.2,42.12h0s7.88,13,19.15,7.05c10.12-5.33,4.66-16.1,4.66-16.11l-3.89-7.9s8.28-4.08,5.25-15.51C103.17,225.14,99.35,217.64,95.75,210.72Z" style="fill:#ffbf9d"></path><path d="M96.76,221.76a1.5,1.5,0,0,1-.71,2,1.43,1.43,0,0,1-2-.61,1.5,1.5,0,0,1,.71-2A1.44,1.44,0,0,1,96.76,221.76Z" style="fill:#263238"></path><path d="M96.38,217.23c-.09.26-1.47,0-2.94.61s-2.23,1.87-2.47,1.76-.08-.45.24-1A4.1,4.1,0,0,1,93.08,217a4,4,0,0,1,2.44-.26C96.13,216.86,96.43,217.12,96.38,217.23Z" style="fill:#263238"></path><path d="M84.34,227.26a1.5,1.5,0,0,1-.71,2,1.42,1.42,0,0,1-2-.61,1.48,1.48,0,0,1,.71-2A1.43,1.43,0,0,1,84.34,227.26Z" style="fill:#263238"></path><path d="M82.92,223.47c-.09.26-1.47-.05-2.94.61s-2.23,1.87-2.47,1.76-.08-.44.24-1a4.1,4.1,0,0,1,1.87-1.63,4,4,0,0,1,2.44-.26C82.67,223.1,83,223.36,82.92,223.47Z" style="fill:#263238"></path><path d="M91.63,231.28a14.37,14.37,0,0,1,2.24-1.42c.36-.2.69-.42.67-.64s-.29-.5-.62-.75l-2-1.72a63.08,63.08,0,0,1-5-4.68c.14-.12,2.6,1.78,5.49,4.24l2,1.75c.29.27.69.53.69,1.06a1,1,0,0,1-.44.7,3.06,3.06,0,0,1-.6.36A12.45,12.45,0,0,1,91.63,231.28Z" style="fill:#263238"></path><path d="M99.53,246.37a29.68,29.68,0,0,1-16,2.52s7,5.84,17.21.1Z" style="fill:#ff9a6c"></path><path d="M80.25,218.77c0,.53-1.39.75-2.88,1.54s-2.57,1.79-2.92,1.42c-.17-.17-.1-.7.25-1.35a4.68,4.68,0,0,1,1.91-1.82,4.23,4.23,0,0,1,2.52-.44C79.81,218.24,80.23,218.52,80.25,218.77Z" style="fill:#263238"></path><path d="M94.18,212.14c-.05.53-1.3.68-2.54,1.32s-2.15,1.48-2.61,1.21c-.21-.14-.25-.61,0-1.22a3.77,3.77,0,0,1,4.15-2C93.85,211.58,94.2,211.9,94.18,212.14Z" style="fill:#263238"></path><path d="M92.14,205.07A17,17,0,0,0,79.33,202,28,28,0,0,0,67,207.3a83.59,83.59,0,0,0-10.07,9,3.36,3.36,0,0,0-1,4.86L64.37,238l3.08,2.85c1.86-.79,2.84-2.84,3.45-4.77a28,28,0,0,0-1.73-20.64,9.28,9.28,0,0,1,2.1,2.05,3.13,3.13,0,0,0,2.56,1.23c1.62-.24,2.13-2.42,1.71-4s-1.38-3.09-1.22-4.73a18.67,18.67,0,0,0,8,2.73c1.33.14,2.94,0,3.57-1.19a2.53,2.53,0,0,0-.4-2.65,7.35,7.35,0,0,0-2.21-1.73,14.75,14.75,0,0,0,8.34,1.08,2,2,0,0,0,1.59-.85C93.57,206.55,92.85,205.63,92.14,205.07Z" style="fill:#263238"></path><path d="M66.87,232.22c-.2,0-7.41,1-4.27,7.43s8.93,1.93,8.85,1.74S66.87,232.22,66.87,232.22Z" style="fill:#ffbf9d"></path><path d="M68.3,239.92s-.07.14-.21.31a1.27,1.27,0,0,1-.83.43,3.07,3.07,0,0,1-2.49-1.85,4,4,0,0,1-.48-1.75,1.45,1.45,0,0,1,.42-1.27.64.64,0,0,1,.81,0c.18.14.2.29.24.28s.08-.17-.1-.41a.78.78,0,0,0-.45-.28,1,1,0,0,0-.7.14,1.77,1.77,0,0,0-.67,1.57,4.24,4.24,0,0,0,.48,2c.68,1.27,1.93,2.16,3,2a1.31,1.31,0,0,0,.94-.67C68.37,240.08,68.33,239.92,68.3,239.92Z" style="fill:#ff9a6c"></path><path d="M67.48,215.25a2.5,2.5,0,0,1,0,.44,11,11,0,0,1,0,1.27,22.49,22.49,0,0,1-.67,4.61,24.21,24.21,0,0,1-1,3.07c-.22.54-.45,1.09-.74,1.65a3.51,3.51,0,0,1-1.29,1.48,2.14,2.14,0,0,1-2.08-.05,3.93,3.93,0,0,1-1.5-1.55c-.69-1.33-.67-2.86-1.12-4.24-.06-.19-.13-.36-.2-.53l.35,0-1.35,4.07c-.22.65-.43,1.29-.65,1.92a3.84,3.84,0,0,1-1,1.75,1.38,1.38,0,0,1-1,.35,1.63,1.63,0,0,1-.93-.36,4.43,4.43,0,0,1-1.1-1.42,12.62,12.62,0,0,1-1.46-7.45A8.74,8.74,0,0,1,52,219a2.56,2.56,0,0,1,.12-.41s-.11.58-.19,1.64a12.91,12.91,0,0,0,.41,4.43,12.72,12.72,0,0,0,1.17,2.85,4.1,4.1,0,0,0,1,1.31,1.13,1.13,0,0,0,1.48,0,3.59,3.59,0,0,0,.88-1.61q.31-.94.63-1.92c.44-1.31.88-2.67,1.34-4.05l.16-.48.19.45c.08.18.15.37.22.56.47,1.46.45,3,1.08,4.19a3.57,3.57,0,0,0,1.35,1.4,1.75,1.75,0,0,0,1.74.06,3,3,0,0,0,1.17-1.33c.28-.53.52-1.08.74-1.61a23.51,23.51,0,0,0,1-3,25.08,25.08,0,0,0,.79-4.55c0-.55.07-1,.08-1.26A1.38,1.38,0,0,1,67.48,215.25Z" style="fill:#455a64"></path><path d="M87.82,234.36a6.39,6.39,0,0,0,.71,3.22,2.7,2.7,0,0,0,2.29,1.31,3,3,0,0,0,2.36-1.63A8.84,8.84,0,0,0,94,234.4C92.11,234.36,89.74,234.39,87.82,234.36Z" style="fill:#ff9a6c"></path><path d="M92.84,238.47a2.71,2.71,0,0,1-2.07.54,3.52,3.52,0,0,1-2.17-1,3.73,3.73,0,0,1-1.11-2.69,3.62,3.62,0,0,1,.22-1.23l.05-.14h.15a26.36,26.36,0,0,1,4.33.1,6.21,6.21,0,0,1,1.71.33c0,.13-2.61-.22-6,0l.2-.15a3.18,3.18,0,0,0-.19,1.08,3.42,3.42,0,0,0,1,2.38,3.29,3.29,0,0,0,1.91.94A5.45,5.45,0,0,0,92.84,238.47Z" style="fill:#263238"></path><path d="M134.61,336.44l-3.36-30.15-3.5-47.82.59-25.29L107.9,235l-2.24,9.54L101,249.11c2.67,9.43-14.41,13.93-24.54,7.4-5.87,1.09-14.81,7-17,9.65L40.8,290.68l22,9.76,5.5-7.93,2.42,23.1-2.32,19.77Z" style="fill:#407BFF"></path><path d="M57.25,298c-.75.56-5.43,6-5.43,6l16.69,15.84-5.78,10.5S36,314.56,34.14,309.9s4.12-12.84,6-16.19l1.57-2.36Z" style="fill:#ffbf9d"></path><polygon points="39.09 461.76 45.55 439.38 65.92 445.92 54.73 466.87 43.25 466.87 39.09 461.76" style="fill:#e0e0e0"></polygon><path d="M38,461.76l0,1.25s-21.52,7.86-21.88,11.88L58.26,476,58.07,462A24.18,24.18,0,0,1,38,461.76Z" style="fill:#407BFF"></path><path d="M58.26,476l0-3.38-40.43.16s-1.9.76-1.73,2.09Z" style="fill:#e0e0e0"></path><path d="M38.12,468.07c.06,0,.16-.29.15-.81a4.15,4.15,0,0,0-.55-1.9,4.11,4.11,0,0,0-1.37-1.43c-.44-.27-.75-.34-.77-.28a9.53,9.53,0,0,1,1.74,1.94A9.62,9.62,0,0,1,38.12,468.07Z" style="fill:#263238"></path><path d="M40.36,467.65a3.66,3.66,0,0,0-.6-2.67,3.6,3.6,0,0,0-2-1.85,22.12,22.12,0,0,1,1.63,2.08A22.72,22.72,0,0,1,40.36,467.65Z" style="fill:#263238"></path><path d="M34.83,469a3.62,3.62,0,0,0-1-4.23c-.1.08.5.89.76,2.05S34.7,469,34.83,469Z" style="fill:#263238"></path><path d="M35.48,464a2.55,2.55,0,0,0,.73-1.39,8.52,8.52,0,0,0,.25-1.69c0-.32,0-.66,0-1a3,3,0,0,0,0-.57.78.78,0,0,0-.42-.58.64.64,0,0,0-.75.18,1.34,1.34,0,0,0-.28.54,4.83,4.83,0,0,0-.2,1,5.43,5.43,0,0,0,.14,1.72,2.65,2.65,0,0,0,.7,1.4c.07,0-.22-.55-.38-1.47a5.63,5.63,0,0,1,0-1.61,5.24,5.24,0,0,1,.2-.92c.09-.3.3-.54.42-.45s.21.39.2.74v1a10.8,10.8,0,0,1-.14,1.64C35.73,463.49,35.42,464,35.48,464Z" style="fill:#263238"></path><path d="M35.2,463.91s.06.07.21.15l.13.07,0-.16a5.08,5.08,0,0,0-.71-1.62,6.47,6.47,0,0,0-.88-1.09,7.54,7.54,0,0,0-.59-.52,1.58,1.58,0,0,0-.41-.24.73.73,0,0,0-.59.07.6.6,0,0,0-.2.71,2,2,0,0,0,.27.49,5.53,5.53,0,0,0,.6.74,5.37,5.37,0,0,0,1.29,1,2.59,2.59,0,0,0,1.39.45c0-.07-.5-.24-1.23-.72a6.27,6.27,0,0,1-1.14-1,4.81,4.81,0,0,1-.54-.7c-.2-.26-.29-.55-.19-.57s.72.34,1,.62a7.69,7.69,0,0,1,.88,1,10.05,10.05,0,0,1,.88,1.47l.09-.09C35.29,463.89,35.2,463.88,35.2,463.91Z" style="fill:#263238"></path><polygon points="165.79 462.3 159.07 439.38 138.71 445.92 149.89 466.87 161.38 466.87 165.79 462.3" style="fill:#e0e0e0"></polygon><path d="M166.64,461.76l.05,1.25s21.52,7.86,21.87,11.88L146.36,476l.2-14.06A24.16,24.16,0,0,0,166.64,461.76Z" style="fill:#407BFF"></path><path d="M146.36,476l0-3.38,40.43.16s1.9.76,1.72,2.09Z" style="fill:#e0e0e0"></path><path d="M166.5,468.07c-.06,0-.16-.29-.15-.81a4.18,4.18,0,0,1,.56-1.9,4.09,4.09,0,0,1,1.36-1.43c.44-.27.75-.34.78-.28a9.41,9.41,0,0,0-1.75,1.94A9.62,9.62,0,0,0,166.5,468.07Z" style="fill:#263238"></path><path d="M164.27,467.65a3.56,3.56,0,0,1,.59-2.67,3.63,3.63,0,0,1,2-1.85c.08.12-.91.82-1.63,2.08A21.43,21.43,0,0,0,164.27,467.65Z" style="fill:#263238"></path><path d="M169.79,469a2.79,2.79,0,0,1-.21-2.28,2.86,2.86,0,0,1,1.2-1.95c.11.08-.5.89-.76,2.05S169.92,469,169.79,469Z" style="fill:#263238"></path><path d="M169.14,464a2.63,2.63,0,0,1-.73-1.39,8.52,8.52,0,0,1-.25-1.69c0-.32,0-.66,0-1a2.9,2.9,0,0,1,0-.57.81.81,0,0,1,.42-.58.64.64,0,0,1,.75.18,1.5,1.5,0,0,1,.29.54,5.52,5.52,0,0,1,.19,1,5.15,5.15,0,0,1-.14,1.72,2.65,2.65,0,0,1-.7,1.4c-.07,0,.22-.55.39-1.47a5.66,5.66,0,0,0,0-1.61,4.47,4.47,0,0,0-.2-.92c-.08-.3-.3-.54-.41-.45s-.22.39-.21.74v1a9.56,9.56,0,0,0,.15,1.64C168.89,463.49,169.2,464,169.14,464Z" style="fill:#263238"></path><path d="M169.43,463.91s-.06.07-.22.15l-.12.07,0-.16a5.08,5.08,0,0,1,.71-1.62,6.47,6.47,0,0,1,.88-1.09,7.54,7.54,0,0,1,.59-.52,1.5,1.5,0,0,1,.42-.24.71.71,0,0,1,.58.07.6.6,0,0,1,.2.71,2,2,0,0,1-.26.49,6.5,6.5,0,0,1-.61.74,5.54,5.54,0,0,1-1.28,1,2.61,2.61,0,0,1-1.4.45c0-.07.51-.24,1.23-.72a6,6,0,0,0,1.14-1,5.67,5.67,0,0,0,.55-.7c.19-.26.28-.55.18-.57s-.71.34-1,.62a7.69,7.69,0,0,0-.88,1,11.08,11.08,0,0,0-.88,1.47l-.09-.09C169.33,463.89,169.42,463.88,169.43,463.91Z" style="fill:#263238"></path><path d="M68,290.27A28.61,28.61,0,0,1,67,287.21c-.61-1.89-1.5-4.49-2.62-7.32s-2.24-5.33-3.09-7.13A26.82,26.82,0,0,1,60,269.81a16.52,16.52,0,0,1,1.65,2.79,72.73,72.73,0,0,1,3.25,7.1,72,72,0,0,1,2.48,7.41A15.79,15.79,0,0,1,68,290.27Z" style="fill:#263238"></path><path d="M122,247.88c0,.15-3.28-.7-7.32-1.46s-7.37-1.17-7.36-1.32a8.36,8.36,0,0,1,2.2.06c1.35.12,3.22.36,5.25.75s3.86.84,5.16,1.22A9.17,9.17,0,0,1,122,247.88Z" style="fill:#263238"></path><path d="M120.7,250.29a15,15,0,0,1-2.47-.36c-1.52-.26-3.62-.58-6-.81s-4.46-.3-6-.32a15.31,15.31,0,0,1-2.5-.11,9.71,9.71,0,0,1,2.5-.26,43.91,43.91,0,0,1,6,.18,44.39,44.39,0,0,1,6,1A9.64,9.64,0,0,1,120.7,250.29Z" style="fill:#263238"></path><path d="M114.74,285a1.91,1.91,0,0,1-.22.42l-.7,1.16c-.61,1-1.53,2.42-2.68,4.17-2.3,3.5-5.59,8.27-9.38,13.43s-7.37,9.7-10,12.94c-1.33,1.62-2.42,2.92-3.19,3.8l-.9,1a1.57,1.57,0,0,1-.33.33s.07-.15.25-.4.5-.64.82-1.07l3.06-3.9c2.58-3.3,6.12-7.88,9.9-13s7.11-9.88,9.49-13.33c1.16-1.67,2.11-3,2.82-4.08l.79-1.1C114.62,285.1,114.72,285,114.74,285Z" style="fill:#263238"></path><path d="M117,271.9a4.81,4.81,0,1,1-4.8-4.8A4.8,4.8,0,0,1,117,271.9Z" style="fill:#fff"></path><path d="M112.24,276.74a4.84,4.84,0,1,1,4.83-4.84A4.84,4.84,0,0,1,112.24,276.74Zm0-9.62A4.79,4.79,0,1,0,117,271.9,4.79,4.79,0,0,0,112.24,267.12Z" style="fill:#263238"></path><path d="M75.39,336.44c.13,0-3.13,10.92-7.29,24.28s-7.64,24.17-7.78,24.13,3.13-10.91,7.29-24.28S75.25,336.4,75.39,336.44Z" style="fill:#fff"></path><path d="M73.56,335.43c.14,0-3.13,10.91-7.29,24.28s-7.64,24.17-7.78,24.13,3.13-10.91,7.29-24.28S73.42,335.39,73.56,335.43Z" style="fill:#fff"></path><path d="M67.85,319.22l5.35,5.19,3.47,2s8.72,4.47,8.73,6.26c0,2.47-2.68,1-2.68,1L76.51,331s7.88,5.43,7.43,7.62c-.21,1-2.3,1-2.3,1l-5.51-3.38s5.66,5.36,4.48,6.89c-1.37,1.77-2.47.57-2.47.57L72.53,339s4.56,6.53,2.57,7.52-2.93-1.8-2.93-1.8l-9.63-15.18Z" style="fill:#ffbf9d"></path><path d="M97.22,174.81s-6.5-8.64-9.94-10.19-7.85-5.27-9.25-4.8-1.3,1.06-1.3,1.06-1.45-2.16-2.73-2.16-1.29.87-1.29.87-1.23-.85-1.9-.7c-1.09.24-1,1.52-1,1.52s-.46,1.09.07,1.75l2.7,3.24a1.33,1.33,0,0,0-.79,1.79c.57,1.26,8,9.31,12,10.77a19,19,0,0,0,7.42,1.16Z" style="fill:#ffbf9d"></path><path d="M82.85,167a14.55,14.55,0,0,1-3.57-2.8,27.7,27.7,0,0,1-2.18-2.36c-.25-.29-.52-.64-.43-.94s.28-.32.27-.28-.08.11-.07.3.19.39.5.67l2.27,2.23A32.89,32.89,0,0,1,82.85,167Z" style="fill:#ff9a6c"></path><path d="M80.9,170.27s-.11.11-.35.24a2.2,2.2,0,0,1-1.13.3,2.24,2.24,0,0,1-1.48-.95,15.81,15.81,0,0,0-1.32-1.48A23.11,23.11,0,0,0,73.89,166a4.67,4.67,0,0,0-.91-.54c-.23-.1-.34-.05-.37-.09s.12-.16.42-.11a3.25,3.25,0,0,1,1.06.43A14.7,14.7,0,0,1,77,168c1.08,1,1.63,2.34,2.47,2.43a2.77,2.77,0,0,0,1-.12C80.73,170.25,80.88,170.23,80.9,170.27Z" style="fill:#ff9a6c"></path><path d="M86.74,173.14a6.47,6.47,0,0,1-2.82-2.66,6.36,6.36,0,0,1-1.25-3.66c.15,0,.55,1.64,1.69,3.38S86.83,173,86.74,173.14Z" style="fill:#ff9a6c"></path><path d="M80,167.53a20.5,20.5,0,0,1-4.09-3.66,19.46,19.46,0,0,1-3.36-4.34c.11-.09,1.68,1.78,3.74,4A53.24,53.24,0,0,1,80,167.53Z" style="fill:#ff9a6c"></path></g></svg>