<svg xmlns="http://www.w3.org/2000/svg" viewBox="0 0 500 500"><g id="freepik--background-complete--inject-2"><path d="M414.79,339.89l13.36-.28,6.58-.11c2.19-.05,4.36,0,6.54-.06l-.44.45-.06-11.19.5.5L428,329.14c-4.41,0-8.82-.12-13.24-.17l.28-.27c0,1.83-.09,3.67-.14,5.54Zm0,0-.14-5.54c0-1.86-.11-3.75-.13-5.65v-.27h.27c4.42-.05,8.83-.16,13.24-.17l13.24-.06h.5v.5l0,11.19v.45h-.45c-2.23,0-4.47,0-6.69-.06l-6.66-.11Z" style="fill:#ebebeb"></path><path d="M429.56,354l13.36-.28,6.58-.11c2.19-.05,4.36,0,6.54-.06l-.44.45-.05-11.19.49.5-13.24-.06c-4.41,0-8.82-.12-13.24-.17l.28-.27c0,1.83-.09,3.67-.13,5.54Zm0,0-.14-5.54c0-1.86-.11-3.75-.13-5.65v-.27h.27c4.42-.05,8.83-.16,13.24-.17l13.24-.06h.51v.5L456.49,354v.45H456c-2.23,0-4.46,0-6.69-.06l-6.66-.11Z" style="fill:#ebebeb"></path><path d="M400,354l13.36-.28,6.58-.11c2.18-.05,4.36,0,6.54-.06l-.44.45L426,342.81l.5.5-13.24-.06c-4.41,0-8.83-.12-13.24-.17l.27-.27c0,1.83-.08,3.67-.13,5.54Zm0,0-.14-5.54c-.05-1.86-.11-3.75-.13-5.65v-.27H400c4.41-.05,8.83-.16,13.24-.17l13.24-.06h.5v.5L427,354v.45h-.44c-2.23,0-4.47,0-6.69-.06l-6.66-.11Z" style="fill:#ebebeb"></path><path d="M398.41,114.94l13.36-.28,6.58-.11c2.18,0,4.36,0,6.54-.06l-.44.45-.06-11.19.5.5-13.24-.06c-4.41,0-8.83-.12-13.24-.17l.27-.27c0,1.83-.08,3.67-.13,5.54Zm0,0-.14-5.54c0-1.86-.11-3.75-.13-5.65v-.27h.27c4.41,0,8.83-.16,13.24-.17l13.24-.06h.5v.5l-.05,11.19v.45h-.45c-2.23,0-4.47,0-6.69-.06l-6.66-.11Z" style="fill:#ebebeb"></path><path d="M413.18,129.05l13.36-.28,6.58-.11c2.19,0,4.36,0,6.54-.06l-.44.45-.06-11.19.5.5-13.24-.06c-4.41,0-8.82-.12-13.24-.17l.28-.27c0,1.83-.09,3.67-.14,5.54Zm0,0-.14-5.54c0-1.86-.11-3.75-.13-5.65v-.27h.27c4.42,0,8.83-.16,13.24-.17l13.24-.06h.51v.5l-.05,11.19v.45h-.45c-2.23,0-4.47,0-6.69-.05l-6.66-.11Z" style="fill:#ebebeb"></path><path d="M383.64,129.05l13.36-.28,6.57-.11c2.19,0,4.37,0,6.55-.06l-.45.45-.05-11.19.5.5-13.24-.06c-4.41,0-8.83-.12-13.24-.17l.27-.27c0,1.83-.08,3.67-.13,5.54Zm0,0-.14-5.54c-.05-1.86-.11-3.75-.13-5.65v-.27h.28c4.41,0,8.83-.16,13.24-.17l13.24-.06h.5v.5l-.05,11.19v.45h-.44c-2.23,0-4.47,0-6.69-.05l-6.67-.11Z" style="fill:#ebebeb"></path><path d="M58.73,354l13.35-.28,6.58-.11c2.19-.05,4.37,0,6.55-.06l-.45.45-.05-11.19.5.5L72,343.25c-4.42,0-8.83-.12-13.24-.17l.27-.27c0,1.83-.09,3.67-.13,5.54Zm0,0-.15-5.54c0-1.86-.11-3.75-.13-5.65v-.27h.28c4.41-.05,8.82-.16,13.24-.17l13.24-.06h.5v.5L85.65,354v.45h-.44c-2.23,0-4.47,0-6.7-.06l-6.66-.11Z" style="fill:#ebebeb"></path><path d="M58.73,69.79l13.35-.28,6.58-.11c2.19-.05,4.37,0,6.55-.06l-.45.45L84.71,58.6l.5.5L72,59c-4.42,0-8.83-.12-13.24-.17L59,58.6c0,1.83-.09,3.67-.13,5.54Zm0,0-.15-5.54c0-1.86-.11-3.75-.13-5.65v-.27h.28c4.41,0,8.82-.16,13.24-.17l13.24-.06h.5v.5l-.06,11.19v.45h-.44c-2.23,0-4.47,0-6.7,0l-6.66-.11Z" style="fill:#ebebeb"></path><path d="M44,83.9l13.35-.28,6.58-.11c2.19-.05,4.36,0,6.55-.06L70,83.9l0-11.19.5.5L57.2,73.15C52.78,73.14,48.37,73,44,73l.27-.27c0,1.83-.09,3.67-.13,5.54Zm0,0-.15-5.54c0-1.86-.11-3.75-.13-5.65v-.27H44c4.41,0,8.82-.16,13.24-.17l13.24-.06h.5v.5L70.88,83.9v.45h-.44c-2.24,0-4.47,0-6.7,0l-6.66-.11Z" style="fill:#ebebeb"></path><path d="M429.56,69.8l13.36-.28,6.58-.11c2.19,0,4.36,0,6.54,0l-.44.44-.05-11.19.49.5-13.24-.06c-4.41,0-8.82-.11-13.24-.17l.28-.27c0,1.83-.09,3.67-.13,5.54Zm0,0-.14-5.53c0-1.87-.11-3.76-.13-5.66v-.27h.27c4.42-.05,8.83-.16,13.24-.17L456,58.11h.51v.5l-.05,11.19v.45H456c-2.23,0-4.46,0-6.69-.06l-6.66-.11Z" style="fill:#ebebeb"></path><path d="M321.64,207.65l-13.36.28-6.58.11c-2.18.05-4.36,0-6.54.05l.44-.44.06,11.19-.5-.5,13.24.06c4.41,0,8.82.11,13.24.16l-.28.28c0-1.83.09-3.68.14-5.54Zm0,0,.14,5.53c0,1.87.11,3.76.13,5.66v.27h-.27c-4.42,0-8.83.16-13.24.16l-13.24.07h-.5v-.5l0-11.19v-.45h.45c2.23,0,4.47,0,6.69.06l6.66.11Z" style="fill:#ebebeb"></path><path d="M306.87,193.54l-13.36.28-6.58.11c-2.19,0-4.36,0-6.54,0l.44-.44.05,11.19-.49-.5,13.24.06c4.41,0,8.82.11,13.24.17l-.28.27c0-1.83.09-3.68.13-5.54Zm0,0,.14,5.53c0,1.87.11,3.76.13,5.66V205h-.27c-4.42.05-8.83.16-13.24.16l-13.24.07h-.51v-.5l.05-11.19v-.45h.45c2.23,0,4.46,0,6.69.06l6.66.11Z" style="fill:#ebebeb"></path><rect x="50.12" y="52.77" width="143.89" height="304.93" style="fill:#ebebeb"></rect><rect x="197.99" y="52.77" width="143.89" height="304.93" style="fill:#ebebeb"></rect><g style="opacity:0.4"><polygon points="128.02 52.77 50.12 130.67 50.12 104.2 101.56 52.77 128.02 52.77" style="fill:#fff"></polygon><polygon points="341.89 214.46 341.89 240.92 225.12 357.69 198.65 357.69 341.89 214.46" style="fill:#fff"></polygon><polygon points="57.73 357.69 194.01 221.4 194.01 247.87 84.19 357.69 57.73 357.69" style="fill:#fff"></polygon><polygon points="341.89 73.53 341.89 100 198 243.89 198 217.42 341.89 73.53" style="fill:#fff"></polygon><polygon points="181 52.77 50.12 183.65 50.12 180.18 177.53 52.77 181 52.77" style="fill:#fff"></polygon><polygon points="80.98 52.77 50.12 83.63 50.12 80.16 77.51 52.77 80.98 52.77" style="fill:#fff"></polygon><polygon points="50.12 351.38 194.01 207.49 194.01 210.96 50.12 354.85 50.12 351.38" style="fill:#fff"></polygon><polygon points="341.89 59.61 341.89 63.08 198 206.97 198 203.51 341.89 59.61" style="fill:#fff"></polygon><polygon points="190.38 357.69 194.01 354.06 194.01 357.53 193.85 357.69 190.38 357.69" style="fill:#fff"></polygon><polygon points="341.89 206.19 341.89 209.65 198 353.55 198 350.08 341.89 206.19" style="fill:#fff"></polygon><polygon points="341.89 274.84 341.89 278.31 262.51 357.69 259.04 357.69 341.89 274.84" style="fill:#fff"></polygon><polygon points="190.47 52.77 194.01 52.77 194.01 61.93 50.12 205.82 50.12 193.12 190.47 52.77" style="fill:#fff"></polygon><polygon points="203.18 52.77 198 57.95 198 52.77 203.18 52.77" style="fill:#fff"></polygon><polygon points="50.12 257.25 194.01 113.36 194.01 126.07 50.12 269.97 50.12 257.25" style="fill:#fff"></polygon><polygon points="267.32 52.77 198 122.09 198 109.38 254.6 52.77 267.32 52.77" style="fill:#fff"></polygon><polygon points="341.89 314.17 341.89 326.87 311.07 357.69 298.37 357.69 341.89 314.17" style="fill:#fff"></polygon><polygon points="164.16 357.69 194.01 327.84 194.01 340.54 176.87 357.69 164.16 357.69" style="fill:#fff"></polygon><polygon points="341.89 179.96 341.89 192.67 198 336.56 198 323.86 341.89 179.96" style="fill:#fff"></polygon></g><rect x="59.94" y="220.6" width="181.81" height="5.28" style="fill:#c7c7c7"></rect><rect x="53.2" y="201.69" width="6.73" height="43.1" style="fill:#c7c7c7"></rect><rect x="48.74" y="205.27" width="4.46" height="35.96" style="fill:#c7c7c7"></rect><polygon points="53.2 241.22 51.85 241.22 50.57 205.26 53.2 205.26 53.2 241.22" style="fill:#a6a6a6"></polygon><rect x="241.75" y="201.69" width="6.73" height="43.1" transform="translate(490.23 446.49) rotate(180)" style="fill:#c7c7c7"></rect><rect x="248.48" y="205.27" width="4.46" height="35.96" transform="translate(501.43 446.49) rotate(180)" style="fill:#c7c7c7"></rect><polygon points="248.48 205.26 249.84 205.26 251.12 241.22 248.48 241.22 248.48 205.26" style="fill:#a6a6a6"></polygon><rect x="70.34" y="212.59" width="9.31" height="167.2" style="fill:#dbdbdb"></rect><rect x="222.04" y="212.59" width="9.31" height="167.2" style="fill:#dbdbdb"></rect><rect x="367.73" y="191.48" width="11.59" height="26.47" style="fill:#dbdbdb"></rect><rect x="362.16" y="194.32" width="5.57" height="20.78" style="fill:#dbdbdb"></rect><polygon points="367.73 194.32 367.73 215.11 364.95 215.11 365.97 194.32 367.73 194.32" style="fill:#c7c7c7"></polygon><rect x="434.05" y="191.48" width="11.59" height="26.47" transform="translate(879.68 409.43) rotate(180)" style="fill:#dbdbdb"></rect><rect x="445.64" y="194.32" width="5.57" height="20.78" transform="translate(896.84 409.43) rotate(180)" style="fill:#dbdbdb"></rect><polygon points="445.63 215.1 445.63 194.32 448.42 194.32 447.4 215.1 445.63 215.1" style="fill:#c7c7c7"></polygon><rect x="379.32" y="199.69" width="54.73" height="10.05" style="fill:#c7c7c7"></rect><rect x="367.73" y="225.33" width="11.59" height="26.47" style="fill:#dbdbdb"></rect><rect x="362.16" y="228.18" width="5.57" height="20.78" style="fill:#dbdbdb"></rect><polygon points="367.73 228.18 367.73 248.97 364.95 248.97 365.97 228.18 367.73 228.18" style="fill:#c7c7c7"></polygon><rect x="434.05" y="225.33" width="11.59" height="26.47" transform="translate(879.68 477.14) rotate(180)" style="fill:#dbdbdb"></rect><rect x="445.64" y="228.18" width="5.57" height="20.78" transform="translate(896.84 477.14) rotate(180)" style="fill:#dbdbdb"></rect><polygon points="445.63 248.96 445.63 228.17 448.42 228.17 447.4 248.96 445.63 248.96" style="fill:#c7c7c7"></polygon><rect x="379.32" y="233.55" width="54.73" height="10.05" style="fill:#c7c7c7"></rect><rect x="367.73" y="259.19" width="11.59" height="26.47" style="fill:#dbdbdb"></rect><rect x="362.16" y="262.03" width="5.57" height="20.78" style="fill:#dbdbdb"></rect><polygon points="367.73 262.04 367.73 282.82 364.95 282.82 365.97 262.04 367.73 262.04" style="fill:#c7c7c7"></polygon><rect x="434.05" y="259.19" width="11.59" height="26.47" transform="translate(879.68 544.85) rotate(180)" style="fill:#dbdbdb"></rect><rect x="445.64" y="262.03" width="5.57" height="20.78" transform="translate(896.84 544.85) rotate(180)" style="fill:#dbdbdb"></rect><polygon points="445.63 282.81 445.63 262.03 448.42 262.03 447.4 282.81 445.63 282.81" style="fill:#c7c7c7"></polygon><rect x="379.32" y="267.4" width="54.73" height="10.05" style="fill:#c7c7c7"></rect><rect x="367.73" y="293.05" width="11.59" height="26.47" style="fill:#dbdbdb"></rect><rect x="362.16" y="295.89" width="5.57" height="20.78" style="fill:#dbdbdb"></rect><polygon points="367.73 295.89 367.73 316.68 364.95 316.68 365.97 295.89 367.73 295.89" style="fill:#c7c7c7"></polygon><rect x="434.05" y="293.05" width="11.59" height="26.47" transform="translate(879.68 612.56) rotate(180)" style="fill:#dbdbdb"></rect><rect x="445.64" y="295.89" width="5.57" height="20.78" transform="translate(896.84 612.56) rotate(180)" style="fill:#dbdbdb"></rect><polygon points="445.63 316.67 445.63 295.88 448.42 295.88 447.4 316.67 445.63 316.67" style="fill:#c7c7c7"></polygon><rect x="379.32" y="301.26" width="54.73" height="10.05" style="fill:#c7c7c7"></rect><rect x="367.73" y="326.9" width="11.59" height="26.47" style="fill:#dbdbdb"></rect><rect x="362.16" y="329.74" width="5.57" height="20.78" style="fill:#dbdbdb"></rect><polygon points="367.73 329.75 367.73 350.53 364.95 350.53 365.97 329.75 367.73 329.75" style="fill:#c7c7c7"></polygon><rect x="434.05" y="326.9" width="11.59" height="26.47" transform="translate(879.68 680.27) rotate(180)" style="fill:#dbdbdb"></rect><rect x="445.64" y="329.74" width="5.57" height="20.78" transform="translate(896.84 680.27) rotate(180)" style="fill:#dbdbdb"></rect><polygon points="445.63 350.52 445.63 329.74 448.42 329.74 447.4 350.52 445.63 350.52" style="fill:#c7c7c7"></polygon><rect x="379.32" y="335.11" width="54.73" height="10.05" style="fill:#c7c7c7"></rect><rect x="383.8" y="191.96" width="8.71" height="187.83" style="fill:#dbdbdb"></rect><rect x="420.86" y="191.96" width="8.71" height="187.83" style="fill:#dbdbdb"></rect></g><g id="freepik--Shadow--inject-2"><ellipse cx="234.8" cy="452.11" rx="193.01" ry="16.71" style="fill:#ebebeb"></ellipse><ellipse cx="341.31" cy="426.55" rx="121.34" ry="14.24" style="fill:#ebebeb"></ellipse></g><g id="freepik--Floor--inject-2"><polygon points="46.44 379.79 97.08 379.55 147.72 379.46 249 379.29 350.28 379.46 400.92 379.55 451.56 379.79 400.92 380.04 350.28 380.13 249 380.29 147.72 380.13 97.08 380.04 46.44 379.79" style="fill:#263238"></polygon></g><g id="freepik--character-2--inject-2"><path d="M293.27,422.18c2.33.75,71-.11,73.49-1.75,1-.6-3.86-65.2-3.86-65.2l-44.37.44,4.73,43.22S298,410.58,295.45,412.67,291,421.44,293.27,422.18Z" style="fill:#f7a9a0"></path><path d="M293.28,422.18c2.32.75,71-.11,73.48-1.75.45-.27-.34-14.13-1.31-29h-43l.82,7.46S298,410.57,295.45,412.67,290.94,421.44,293.28,422.18Z" style="fill:#fff"></path><path d="M292.52,423.12c2.45.8,71.78.15,74.42-1.56,1-.64-.45-23.5-.44-23.63H323.61l0,.76S297,410.91,294.27,413.1,290.07,422.33,292.52,423.12Z" style="fill:#407BFF"></path><path d="M292.71,420.41c11.78-.4,59.34-.9,71-.4.1,0,.1.07,0,.07-11.67.65-59.24.77-71,.52C292.46,420.59,292.46,420.41,292.71,420.41Z" style="fill:#263238"></path><path d="M318.59,398.1c4.63-.91,10.3-.25,13.88,3,.14.13-.05.32-.2.28a64.7,64.7,0,0,0-13.66-2.71A.3.3,0,0,1,318.59,398.1Z" style="fill:#263238"></path><path d="M315.26,400.15c4.63-.91,10.31-.25,13.88,3,.14.13,0,.32-.19.28a64.79,64.79,0,0,0-13.67-2.71A.3.3,0,0,1,315.26,400.15Z" style="fill:#263238"></path><path d="M311.93,402.2c4.63-.91,10.31-.25,13.88,3,.14.13,0,.32-.19.28A65.44,65.44,0,0,0,312,402.78.29.29,0,0,1,311.93,402.2Z" style="fill:#263238"></path><path d="M317.72,369.79h47.77A23.72,23.72,0,0,0,367.3,358c-1.91-22.9-7.74-71.76-7.45-73.25.47-2.49,2.29-13.79,6-28.54,1.18-4.62,2.44-9.57,3.76-14.7,3.56-13.88,7.49-29.05,10.91-42.25,5.13-19.78,9.14-35.14,9.14-35.14H349.23s-4.72,15-10.67,34.42c-9.69,31.62-22.63,75.15-23.91,85.74-1.55,12.81-2.52,54-1.17,74.08A22.24,22.24,0,0,0,317.72,369.79Z" style="fill:#455a64"></path><path d="M319.94,361.08c7.28-.15,5.19-.21,12.48-.28,3.56,0,27-.23,30.32.32a.07.07,0,0,1,0,.14c-3.33.56-26.76.35-30.32.32-7.29-.07-5.2-.13-12.48-.28A.11.11,0,0,1,319.94,361.08Z" style="fill:#263238"></path><path d="M382.35,169.65l-7.42,26.15L367.68,222c-2.41,8.74-4.74,17.49-7.06,26.25s-4.62,17.53-6.76,26.34c-.51,2.21-1,4.42-1.47,6.66-.12.55-.2,1.13-.3,1.7,0,.31-.06.66,0,.95l.07.85.26,3.39,1.05,13.54,2.14,27.1L357.4,354l0,.29.54-.33-1.56-25.21-2-27.11-1-13.55-.25-3.39-.07-.85c0-.26,0-.49.05-.74.1-.55.17-1.09.29-1.64.44-2.21,1-4.41,1.49-6.61,4.25-17.6,9-35.1,13.58-52.62Z" style="fill:#263238"></path><path d="M350.2,164.16c2.81,21.74,13,57.87,16.88,87.45,9.14-35.84,22.63-87.45,22.63-87.45Z" style="fill:#263238"></path><path d="M447.77,421.84c-2.34.73-60,1-62.51-.69-1-.61-1.3-10.34-1.38-22.1v-.37c0-2.42-5.59-43.16-5.59-43.16l43.57.89,5,42.79,0,.73s16.27,10.19,18.83,12.32S450.12,421.12,447.77,421.84Z" style="fill:#f7a9a0"></path><path d="M383.07,391.43c.49,3.89.81,6.67.81,7.25v.37c.08,11.76.41,21.48,1.37,22.1,2.5,1.67,60.18,1.42,62.53.69s.44-7.47-2.1-9.59-18.82-12.33-18.82-12.33l0-.73-.92-7.76Z" style="fill:#fff"></path><path d="M450.62,423.12c-2.45.8-64.47.15-67.12-1.56-1-.64.46-23.5.45-23.63h42.89l0,.76s19.34,12.22,22.05,14.41S453.07,422.33,450.62,423.12Z" style="fill:#407BFF"></path><path d="M450.44,420.41c-11.78-.4-52-.9-63.71-.4-.1,0-.1.07,0,.07,11.67.65,51.93.77,63.72.52C450.68,420.59,450.69,420.41,450.44,420.41Z" style="fill:#263238"></path><path d="M429,399.21c-4.54-1.27-10.26-1-14.07,1.93-.15.12,0,.32.17.29a64.94,64.94,0,0,1,13.83-1.64A.3.3,0,0,0,429,399.21Z" style="fill:#263238"></path><path d="M432.14,401.51c-4.54-1.27-10.26-1.05-14.07,1.93-.15.12,0,.33.17.29a64.94,64.94,0,0,1,13.83-1.64A.3.3,0,0,0,432.14,401.51Z" style="fill:#263238"></path><path d="M435.3,403.81c-4.54-1.27-10.26-1.05-14.07,1.93-.15.12,0,.33.17.29a64.94,64.94,0,0,1,13.83-1.64A.3.3,0,0,0,435.3,403.81Z" style="fill:#263238"></path><path d="M350.2,164.16s6.14,37.41,6.56,38.62c0,0,2.28,1.08,6.4,3,0,0,10.65,117.18,10.65,151.73,0,5.81,4,12.11,4,12.11l48,.19s3.54-7,3.36-13.08c-1.46-48.58-26.62-192.55-26.62-192.55Z" style="fill:#455a64"></path><path d="M379.49,361.06c7.33-.12,5.22-.19,12.56-.23,3.59,0,27.17-.12,30.52.45.07,0,.07.13,0,.15-3.36.54-26.94.23-30.53.18-7.33-.1-5.22-.15-12.55-.34A.11.11,0,1,1,379.49,361.06Z" style="fill:#263238"></path><path d="M354.76,201.62a88.69,88.69,0,0,1,13.72,7.19.16.16,0,0,1-.14.28c-4.63-2.25-9.36-4.42-13.86-6.92A.31.31,0,0,1,354.76,201.62Z" style="fill:#263238"></path><path d="M356.53,180.18c.75,4.48,1.17,9,1.68,13.54.12,1.08.25,2.16.36,3.25a6.35,6.35,0,0,0,.78,2.84c1,1.51,2.72,2.22,4.3,2.91a.16.16,0,0,1-.1.31,10.6,10.6,0,0,1-4.56-2.42c-1.44-1.52-1.39-3.83-1.61-5.79a125.44,125.44,0,0,1-1.06-14.61C356.32,180.09,356.51,180.07,356.53,180.18Z" style="fill:#263238"></path><path d="M362,181.56c.16,3.22.52,6.45.79,9.67.13,1.58.24,3.18.34,4.77s.29,3.27.24,4.89c0,.11-.18.13-.2,0-.27-1.53-.3-3.13-.43-4.67s-.24-3.27-.33-4.9c-.19-3.26-.28-6.54-.57-9.79C361.8,181.45,362,181.45,362,181.56Z" style="fill:#263238"></path><polygon points="364.13 210.55 366.71 232.51 369.39 254.46 374.91 298.33 382.62 356.71 375.93 298.2 370.17 254.36 367.2 232.45 364.13 210.55" style="fill:#263238"></polygon><path d="M358,113.35c-4.15,14.61-13.78,38.46-19.83,44.85-6.74,7.11-34.41-3-52.08-8.8-3.51-1.15,3.7-29,7.38-27.56,9.64,3.7,30,12.86,32,11.79,1.69-.88,14.75-17.34,22.36-25.14C360,96,360.89,103.08,358,113.35Z" style="fill:#f7a9a0"></path><path d="M293.86,151.32c3.46-.61,8.63-23.16,6.34-25.95a13.82,13.82,0,0,0-2.85-2.22h0a51.37,51.37,0,0,1-6.87-13.26c-1.75-5.71-3.7-14.38-6.81-13.56-4.53,1.2-3.38,12.46-2.32,18.89-3.33-1.22-6.3-1.95-8.2-1.74-6.27.69-6.75,29.11-1.33,32.55C277.05,149.34,290.39,151.94,293.86,151.32Z" style="fill:#f7a9a0"></path><rect x="273.95" y="102.08" width="5.9" height="3.34" transform="translate(-8.29 25.63) rotate(-5.22)" style="fill:#263238"></rect><rect x="272.96" y="100.96" width="7.57" height="2.19" transform="translate(-8.14 25.62) rotate(-5.22)" style="fill:#455a64"></rect><rect x="266.36" y="106.53" width="2.27" height="3.59" transform="translate(13.1 244.61) rotate(-50.23)" style="fill:#263238"></rect><rect x="264.29" y="105.98" width="3.61" height="2.35" transform="translate(13.49 243.1) rotate(-50.22)" style="fill:#455a64"></rect><rect x="285.83" y="104.75" width="2.27" height="3.59" transform="translate(439.35 372.03) rotate(-140.22)" style="fill:#263238"></rect><rect x="286.33" y="103.97" width="3.61" height="2.35" transform="translate(442.31 370.3) rotate(-140.22)" style="fill:#455a64"></rect><path d="M292.6,118A14.34,14.34,0,1,1,277,105,14.34,14.34,0,0,1,292.6,118Z" style="fill:#455a64"></path><circle cx="278.12" cy="119.06" r="13.69" transform="translate(61.13 329.87) rotate(-67.35)" style="fill:#263238"></circle><circle cx="278.31" cy="119.22" r="12.09" transform="translate(117.55 375.78) rotate(-81.12)" style="fill:#fff"></circle><rect x="277.26" y="108.05" width="0.23" height="1.83" transform="translate(-8.78 25.75) rotate(-5.23)" style="fill:#c7c7c7"></rect><rect x="272.26" y="109.89" width="0.23" height="1.83" transform="matrix(0.82, -0.58, 0.58, 0.82, -14.04, 177.37)" style="fill:#c7c7c7"></rect><rect x="268.85" y="113.99" width="0.23" height="1.83" transform="translate(51.92 310.95) rotate(-65.22)" style="fill:#c7c7c7"></rect><rect x="267.14" y="120.04" width="1.83" height="0.23" transform="translate(-9.83 24.9) rotate(-5.22)" style="fill:#c7c7c7"></rect><rect x="268.98" y="125.04" width="1.83" height="0.23" transform="translate(-22.78 178.5) rotate(-35.21)" style="fill:#c7c7c7"></rect><rect x="273.08" y="128.45" width="1.83" height="0.23" transform="translate(42.54 323.58) rotate(-65.25)" style="fill:#c7c7c7"></rect><rect x="279.13" y="128.55" width="0.23" height="1.83" transform="translate(-10.6 25.88) rotate(-5.21)" style="fill:#c7c7c7"></rect><rect x="284.13" y="126.71" width="0.23" height="1.83" transform="translate(-21.57 187.29) rotate(-35.22)" style="fill:#c7c7c7"></rect><rect x="287.54" y="122.62" width="0.23" height="1.83" transform="translate(54.93 332.92) rotate(-65.22)" style="fill:#c7c7c7"></rect><rect x="287.65" y="118.16" width="1.83" height="0.23" transform="translate(-9.56 26.74) rotate(-5.22)" style="fill:#c7c7c7"></rect><rect x="285.8" y="113.16" width="1.83" height="0.23" transform="translate(-12.85 186.06) rotate(-35.21)" style="fill:#c7c7c7"></rect><rect x="281.71" y="109.75" width="1.83" height="0.23" transform="translate(64.42 320.43) rotate(-65.22)" style="fill:#c7c7c7"></rect><polygon points="277.6 110.5 279 119.88 277.78 119.97 277.27 110.53 277.6 110.5" style="fill:#263238"></polygon><path d="M278.72,119.18a.41.41,0,0,1-.37.45.42.42,0,1,1,.37-.45Z" style="fill:#407BFF"></path><path d="M274.92,114.26c2.44,2.21-1.55,3.81-1.55,3.81s6.3-.92,7.93,2.32-3.33,4.9-3.68,5c.33,0,6.15-.75,7.45,2.68s-3.86,4.49-4.2,4.55c.33.06,4.66.86,5.06,3.69.68,4.86-10.46,3.11-13.57,5.58,0,0,3.59,5.75,3.65,5.94,0,0-10.63-1.46-13.73-5.84a3.43,3.43,0,0,1,.2-4.29s-3.48-.09-4.59-2.75c-.57-1.37,1.12-3.49,1.12-3.49a4.3,4.3,0,0,1-3.62-2.62c-.68-1.94,1.12-3.77,1.12-3.77s-2.59-1.42-2.64-3.63C253.77,117,269.71,109.55,274.92,114.26Z" style="fill:#f7a9a0"></path><path d="M256.75,124.76c-.05,0-.1,0-.05-.07A30.52,30.52,0,0,1,273.57,118c.2,0,.3.31.09.36A62.78,62.78,0,0,0,256.75,124.76Z" style="fill:#263238"></path><path d="M258.92,131.49c-.06,0-.12-.06-.06-.11a28.61,28.61,0,0,1,18.86-6.19c.24,0,.44.27.17.27C273.25,125.5,263.84,128.64,258.92,131.49Z" style="fill:#263238"></path><path d="M281.34,132.85c-6.67-.18-12.74,1.79-18.67,4.71-.08,0-.12-.07-.07-.12,2.52-2.22,6.49-3.69,9.69-4.57a17.52,17.52,0,0,1,9.06-.25C281.47,132.65,281.48,132.85,281.34,132.85Z" style="fill:#263238"></path><path d="M273.43,118c.23,0,0,.35.23.34,1,0,7,.39,7.47,2.47.39,1.67-1.58,3.35-2.59,3.71l-2.54.88,2.7.05a11.32,11.32,0,0,1,3.51.62,4,4,0,0,1,2.46,2.08,2.25,2.25,0,0,1-.69,2.75,6.72,6.72,0,0,1-3.17,1.24l-3.15.49,3.12.57a10.24,10.24,0,0,1,2.52.79,4.35,4.35,0,0,1,1.9,1.56,2,2,0,0,1,0,2.14,4.46,4.46,0,0,1-2.1,1.37,36,36,0,0,1-5.38,1.25c-.92.18-1.84.35-2.75.57a6.55,6.55,0,0,0-2.59,1.06,7.18,7.18,0,0,1,2.64-.81c.92-.14,1.84-.25,2.77-.35a29.24,29.24,0,0,0,5.57-1,5.2,5.2,0,0,0,2.57-1.56,2.87,2.87,0,0,0,.14-3.15,5.26,5.26,0,0,0-2.3-2,11.42,11.42,0,0,0-2.79-.92l0,1.05a7.8,7.8,0,0,0,3.76-1.43,3.26,3.26,0,0,0,1.2-1.85,3.63,3.63,0,0,0-.22-2.17,5,5,0,0,0-3.11-2.64,12.21,12.21,0,0,0-3.88-.62l.15.94c1.27-.49,3.68-2.13,3.4-4.8C281.34,117.19,274.64,117.78,273.43,118Z" style="fill:#263238"></path><path d="M273.37,118.07a6.54,6.54,0,0,0,1.5-1.34,1.53,1.53,0,0,0,.28-1.52,3.15,3.15,0,0,0-1.24-1.25c-.56-.35-1.17-.69-1.81-1a5.29,5.29,0,0,1,2.14.38,3.07,3.07,0,0,1,1.76,1.55,2,2,0,0,1-.61,2.34A3.41,3.41,0,0,1,273.37,118.07Z" style="fill:#263238"></path><path d="M358.21,114.45c-3.1,9.06-7.42,22.3-7.42,22.3l-9.9-1.63-16-2.63s13.27-18.33,25.66-28.08c6.32-5,9-4.89,9.8-2.49h0C361.22,104.55,359.79,109.88,358.21,114.45Z" style="fill:#407BFF"></path><path d="M358.21,114.45c-3.1,9.06-7.42,22.3-7.42,22.3l-9.9-1.63,19.5-33.19C361.22,104.55,359.79,109.88,358.21,114.45Z" style="opacity:0.1"></path><path d="M351.34,130.85a163.34,163.34,0,0,0-21.2-2.87c-.09,0-.1.14,0,.15,2,.17,11.94,2,21.2,2.88C351.44,131,351.44,130.87,351.34,130.85Z" style="fill:#263238"></path><path d="M406.67,180.45c-.14.19-64.27,5.27-65,4.62-.95-.9,5.82-62.11,9.92-76.09s17.64-15.68,23.45-8.63C393.21,122.37,407.17,179.76,406.67,180.45Z" style="fill:#407BFF"></path><path d="M371.67,108c5,5.44,31.65,24.48,32.73,26.67s-6.8,12.63-6.61,13.56C398.58,152,410,179,413,176c4-3.92,21.22-34.83,17.38-45.13s-50-30.78-57.12-32.2S366.72,102.58,371.67,108Z" style="fill:#f7a9a0"></path><path d="M399.92,181.84c-2.95-1.81.86-4.25.86-4.25s-6.34,2.19-8.66-.84,2.48-5.72,2.82-5.93c-.34.11-6.21,2-8.23-1.31s3.11-5.41,3.45-5.54c-.35,0-5,0-6-2.82-1.66-4.9,11.63-6.09,14.36-9.25,0,0-1.59-6.49-1.7-6.67a7.53,7.53,0,0,0,3.94,3c2.91.68,5.53,1,6.76,2.36a3.79,3.79,0,0,1,.63,4.48s3.62-.59,5.3,1.95c.85,1.3-.48,3.83-.48,3.83s2.92-.35,4.26,2c1.08,1.88-.42,4.12-.42,4.12s3,1,3.44,3.24C421.27,174.83,406.24,185.69,399.92,181.84Z" style="fill:#f7a9a0"></path><path d="M416.67,167.41c.05,0,.11,0,.07.06a32.14,32.14,0,0,1-16.15,10.27c-.2,0-.37-.25-.16-.35A66,66,0,0,0,416.67,167.41Z" style="fill:#263238"></path><path d="M413.11,160.87c.05-.05.13,0,.08.1-4.22,4.9-11,9.23-18.31,10.11-.25,0-.51-.19-.22-.25C399.45,169.88,408.56,164.78,413.11,160.87Z" style="fill:#263238"></path><path d="M389.63,163.86c6.95-1.12,12.83-4.35,18.4-8.54.08,0,.15.05.1.12-2.17,2.79-6,5.09-9.13,6.62a18.49,18.49,0,0,1-9.33,2C389.54,164.09,389.48,163.88,389.63,163.86Z" style="fill:#263238"></path><path d="M417,167c1-1.34,1.59-3,.82-4.6a3.32,3.32,0,0,0-1.71-1.59,5.81,5.81,0,0,0-2.74-.13,4.37,4.37,0,0,0-.15-4.94,3.26,3.26,0,0,0-2.17-1,11.1,11.1,0,0,0-2.84.24,3.86,3.86,0,0,0,.68-3.41,4.19,4.19,0,0,0-2.7-2.69,19.53,19.53,0,0,0-4.56-.85,7.93,7.93,0,0,1-4.68-2.63c-.11-.12-.14-.08-.07,0a7.64,7.64,0,0,0,1.61,1.87,7,7,0,0,0,1.61.94,30.53,30.53,0,0,0,4.34,1.06,6,6,0,0,1,3.32,2,3.57,3.57,0,0,1,.29,3.76c0,.05,0,.14.11.13a10.17,10.17,0,0,1,2.55.17,3.58,3.58,0,0,1,1.83,1,4.61,4.61,0,0,1,.43,4.57,8.05,8.05,0,0,1,2.7.57A3.34,3.34,0,0,1,417,162.8a4,4,0,0,1-.23,4.16.11.11,0,0,0,0,0h0a0,0,0,0,0,0,0,.05.05,0,0,0,0,0h0s.95.34,1,.34,0,0,0-.05A5.59,5.59,0,0,0,417,167Z" style="fill:#263238"></path><path d="M411.65,115l-17.47,17.55s-14.73-14.7-21.11-21.84c-6.18-6.92-12.85-16.9,2.84-12.21C391,103,411.65,115,411.65,115Z" style="fill:#407BFF"></path><path d="M406.57,113a162.79,162.79,0,0,0-14.72,15.52c-.06.07.06.17.12.09,1.32-1.52,8.61-8.51,14.73-15.51C406.77,113,406.65,112.94,406.57,113Z" style="fill:#263238"></path><path d="M397.79,128.92c-.55.66-1.12,1.29-1.68,1.94s-1.14,1.27-1.72,1.9l-.19.2-.23-.2q-2.25-2-4.41-4.12c-1.44-1.41-2.86-2.82-4.26-4.27s-2.77-2.92-4.1-4.43-2.64-3-3.87-4.63c1.47,1.37,2.93,2.76,4.36,4.16s2.88,2.8,4.3,4.22l4.24,4.28c1.4,1.43,2.78,2.89,4.16,4.36H394c.62-.58,1.25-1.16,1.9-1.72S397.13,129.47,397.79,128.92Z" style="fill:#263238"></path><path d="M378.45,118.08c.83.47,1.56.94,2.32,1.44a14.79,14.79,0,0,1,2.15,1.71,6.76,6.76,0,0,1-2.57-1.09A5.39,5.39,0,0,1,378.45,118.08Z" style="fill:#263238"></path><path d="M359.74,109.83c3.52.86,8.44-4.93,9.76-9.58.09-.32-2.9-11.45-3.42-13.72-.1-.47-13.44,6.71-13.44,6.71a36.92,36.92,0,0,1,3.37,8.39,5.6,5.6,0,0,1,.12,1,1,1,0,0,0,0,.16C356.26,104.58,357.94,109.38,359.74,109.83Z" style="fill:#f7a9a0"></path><path d="M356.14,102.75a9.62,9.62,0,0,0,1.48-.26c7.43-1.87,8-11.62,7.92-15.83-2.52,1-12.9,6.57-12.9,6.57a37,37,0,0,1,3.37,8.41,5.49,5.49,0,0,1,.12,1A1,1,0,0,0,356.14,102.75Z" style="fill:#263238"></path><path d="M363.33,68.58c3,4.49,4.76,19.59,2.21,23.85-3.7,6.18-11.93,9.17-17.72,4.22-5.62-4.79-7.54-24.51-4.49-28.6C347.83,62,358.88,61.94,363.33,68.58Z" style="fill:#f7a9a0"></path><path d="M352.42,81.09s.08,0,.09.08c.09,1,.36,2.18,1.32,2.4,0,0,0,.06,0,.06C352.69,83.61,352.34,82.07,352.42,81.09Z" style="fill:#263238"></path><path d="M353.2,79.92c1.62-.32,2.14,3,.64,3.24S351.84,80.19,353.2,79.92Z" style="fill:#263238"></path><path d="M346.58,81.75s-.07.06-.07.1c.2,1,.25,2.19-.61,2.67,0,0,0,.07,0,.06C347,84.24,346.92,82.67,346.58,81.75Z" style="fill:#263238"></path><path d="M345.51,80.84c-1.65.14-1.26,3.42.27,3.29S346.89,80.72,345.51,80.84Z" style="fill:#263238"></path><path d="M354,77c-.44.16-.87.24-1.31.36a2.21,2.21,0,0,1-1.41.11.71.71,0,0,1-.39-.76,1.73,1.73,0,0,1,1.33-1.14,2.59,2.59,0,0,1,1.84.06A.75.75,0,0,1,354,77Z" style="fill:#263238"></path><path d="M343.84,80.44c.46,0,.89-.07,1.35-.11a2.23,2.23,0,0,0,1.36-.38.71.71,0,0,0,.1-.85,1.7,1.7,0,0,0-1.64-.61,2.49,2.49,0,0,0-1.7.69A.75.75,0,0,0,343.84,80.44Z" style="fill:#263238"></path><path d="M354.86,90.1c-.2.27-.39.64-.75.73a2.87,2.87,0,0,1-1.13-.08,0,0,0,0,0,0,.06,1.39,1.39,0,0,0,1.37.34,1.09,1.09,0,0,0,.66-1C355,90.07,354.89,90.06,354.86,90.1Z" style="fill:#263238"></path><path d="M353.32,87.24a3.49,3.49,0,0,1-2.06,1.9,4.29,4.29,0,0,1-1.23.26h-.46a.25.25,0,0,1-.24-.2h0a.41.41,0,0,1,0-.11h0V89c-.15-.77-.26-2-.26-2-.27.19-1.61,1.08-1.65.67a52.49,52.49,0,0,1-.33-10.64c0-.11.18-.11.19,0,.45,3.25.33,6.57.73,9.84a5.79,5.79,0,0,1,1.55-.75c.11,0,.17,2.31.27,2.66v0a4.84,4.84,0,0,0,3.39-1.67C353.27,87.1,353.36,87.15,353.32,87.24Z" style="fill:#263238"></path><path d="M350.47,89.05a4.18,4.18,0,0,0,1.88.92,1.83,1.83,0,0,0,1.12-.16c.76-.37.63-1.11.35-1.71a4.44,4.44,0,0,0-.55-.89A5.37,5.37,0,0,1,350.47,89.05Z" style="fill:#263238"></path><path d="M352.35,90a1.83,1.83,0,0,0,1.12-.16c.76-.37.63-1.11.35-1.71A1.91,1.91,0,0,0,352.35,90Z" style="fill:#ff99ba"></path><path d="M364.39,79.11c-2.48.57-4-5.46-4-5.46s-3.91.42-7.22-4.15c0,0-3.9,4.4-8.12,4.84-6.62.69-8.83-7.52-7-9.87,2.65-3.33,9.59-1.63,9.59-1.63s8.25-5.12,12.7.17A4.81,4.81,0,0,1,366,66.36C367.59,70.71,366.24,78.69,364.39,79.11Z" style="fill:#263238"></path><path d="M361.49,74.1A8.66,8.66,0,0,1,356,72.91a6.46,6.46,0,0,1-3-5.09c0-.11-.18-.1-.17,0a7.43,7.43,0,0,0,2.73,5.67,6,6,0,0,0,6,.77A.09.09,0,0,0,361.49,74.1Z" style="fill:#263238"></path><path d="M365.58,63.68c-1.69-1.21-3.66-.9-5.5-.29-.11,0-.05.2.05.16a5.43,5.43,0,0,1,5.39,1.16c1.37,1.2,1.69,3.12,1.79,4.86a13.63,13.63,0,0,1-2.94,9.3s0,.1.06,0A13.56,13.56,0,0,0,367.8,68.7C367.62,66.9,367.14,64.79,365.58,63.68Z" style="fill:#263238"></path><path d="M363.82,81.17s1.94-5.57,4.38-5,1.9,8-.32,9.62a2.61,2.61,0,0,1-3.76-.4Z" style="fill:#f7a9a0"></path><path d="M368,78.29a0,0,0,1,1,0,.06c-1.53,1.2-2,3.07-2.16,4.92a1.44,1.44,0,0,1,2-1c.06,0,0,.1,0,.11a1.59,1.59,0,0,0-1.55,1,7.51,7.51,0,0,0-.43,1.61c0,.18-.34.17-.33,0v0C364.83,82.77,365.68,79.18,368,78.29Z" style="fill:#263238"></path></g><g id="freepik--character-1--inject-2"><path d="M49.43,453.74c-.74-2.42,1.16-72.65,2.86-75.23a1,1,0,0,1,.42-.27c2.1-.77,11,.71,22,.63l8.53.39,35.24,1.7-.93,45.79-35.48-3L73.8,423S61.46,449,59.29,451.57,50.18,456.14,49.43,453.74Z" style="fill:#d3766a"></path><path d="M49.43,453.74c-.74-2.42,1.16-72.65,2.86-75.23a1,1,0,0,1,.42-.27c2.1-.77,11,.71,22,.63l8.53.39-1.17,44.46L73.8,423S61.46,449,59.29,451.57,50.18,456.14,49.43,453.74Z" style="fill:#fff"></path><path d="M49.44,453.73c-.75-2.41,1.15-72.65,2.86-75.22.64-1,10-1.37,22.38.36L73.8,423S61.47,449,59.29,451.58,50.18,456.14,49.44,453.73Z" style="fill:#407BFF"></path><path d="M52.2,452.81c.55-11.47,1.66-57.78,1.33-69.16,0-.09-.06-.09-.07,0C52.67,395,51.93,441.33,52,452.81,52,453.05,52.19,453.06,52.2,452.81Z" style="fill:#263238"></path><path d="M61.85,447.23a9.18,9.18,0,0,0-2.64-6.93,8.94,8.94,0,0,0-6.07-2.7c-.07,0-.07.12,0,.13a10.67,10.67,0,0,1,8.57,9.5A.07.07,0,1,0,61.85,447.23Z" style="fill:#263238"></path><path d="M72.55,427.44c.17-4.59-1.33-9.95-5-12.89-.14-.12-.3.09-.23.22A64,64,0,0,1,72,427.51.29.29,0,0,0,72.55,427.44Z" style="fill:#263238"></path><path d="M71.09,431c.17-4.6-1.33-10-5-12.9-.15-.11-.31.09-.24.23A63.11,63.11,0,0,1,70.52,431,.29.29,0,0,0,71.09,431Z" style="fill:#263238"></path><path d="M69.62,434.47c.17-4.59-1.33-10-5-12.9-.14-.11-.3.09-.23.23a63.81,63.81,0,0,1,4.69,12.74A.28.28,0,0,0,69.62,434.47Z" style="fill:#263238"></path><path d="M68.16,438c.17-4.59-1.33-10-5-12.89-.14-.12-.3.09-.24.23a63.11,63.11,0,0,1,4.69,12.73A.29.29,0,0,0,68.16,438Z" style="fill:#263238"></path><path d="M64.37,386.82c.1-5.15-7.91-5.32-8-.16S64.26,392,64.37,386.82Z" style="fill:#263238"></path><path d="M84.69,432.69c2-2.28.17-5.26-1.8-6.74a24.21,24.21,0,0,0-11.65-4.44c-.1,0-.14.06-.13.14a.56.56,0,0,0-.39.82c2.18,3.32,4.11,7.14,7.25,9.7C79.8,433.66,82.82,434.84,84.69,432.69Zm-9.63-5.86c-1.11-1.61-2.14-3.26-3.32-4.83a71.68,71.68,0,0,1,6.75,2.74,27.18,27.18,0,0,1,3.06,1.75c1.49,1,5.23,5.63.22,6C79,432.65,76.39,428.74,75.06,426.83Z" style="fill:#263238"></path><path d="M69.8,410.06c-.71,4,.34,8.13.86,12.08a.56.56,0,0,0,.83.36.12.12,0,0,0,.19,0,24.08,24.08,0,0,0,5.9-11c.53-2.41,0-5.85-3-6.28C71.72,404.86,70.21,407.73,69.8,410.06Zm2.68-2.72c4-3,4.19,2.91,3.74,4.67a27.81,27.81,0,0,1-1.17,3.32c-.93,2.26-2.17,4.35-3.31,6.49-.14-1.95-.44-3.88-.65-5.82C70.84,413.68,70.27,409,72.48,407.34Z" style="fill:#263238"></path><path d="M148.36,284.57c-3.52,19.33,10.71,92.32,5,95.86-5,3.11-41.73,0-41.73,0v46s45.56,7.41,69.68-1.14c3.95-1.4,8.69-6.16,13.68-12.75,17.76-23.46-1.62-128.86-1.62-128.86Z" style="fill:#263238"></path><path d="M126.37,406.1h-9.21l9.67-24.67c2.94.14,6,.27,9.07.33Z" style="fill:#407BFF"></path><path d="M142.45,406.1h-9.19l9.52-24.3a41.43,41.43,0,0,0,9.56-.93Z" style="fill:#407BFF"></path><path d="M201.48,346.85l-49.55-6.3c-2.47-21.66-5.39-46-3.57-56l45-.88S199.1,314.72,201.48,346.85Z" style="fill:#37474f"></path><path d="M320.18,455.71c-2.41.76-72.66-.5-75.25-2.17a1,1,0,0,1-.27-.41c-.79-2.1.6-11,.43-22,0-.2.13-3.64.31-8.53l.44-32,45.44.51-1.41,32.28-.63,8.26s26.06,12.1,28.68,14.24S322.58,454.94,320.18,455.71Z" style="fill:#d3766a"></path><path d="M320.18,455.71c-2.41.76-72.66-.5-75.25-2.17a1,1,0,0,1-.27-.41c-.79-2.1.6-11,.43-22,0-.2.13-3.64.31-8.53l44.47.76-.63,8.26s26.06,12.1,28.68,14.24S322.58,454.94,320.18,455.71Z" style="fill:#fff"></path><path d="M320.18,455.7c-2.41.77-72.66-.48-75.25-2.17-1-.63-1.46-10,.16-22.38l44.15.48s26.05,12.09,28.69,14.24S322.58,454.94,320.18,455.7Z" style="fill:#407BFF"></path><path d="M319.23,453c-11.47-.44-57.79-1.14-69.17-.7-.09,0-.09.07,0,.07,11.36.69,57.69,1,69.17.82C319.47,453.13,319.48,453,319.23,453Z" style="fill:#263238"></path><path d="M313.56,443.35a9.2,9.2,0,0,0-6.9,2.71,8.89,8.89,0,0,0-2.65,6.09c0,.07.13.07.14,0a10.65,10.65,0,0,1,9.41-8.66A.07.07,0,1,0,313.56,443.35Z" style="fill:#263238"></path><path d="M293.67,432.83c-4.59-.13-9.94,1.42-12.84,5.14-.12.14.09.3.23.23a63.49,63.49,0,0,1,12.69-4.8A.29.29,0,0,0,293.67,432.83Z" style="fill:#263238"></path><path d="M297.2,434.26c-4.59-.12-9.94,1.42-12.85,5.14-.11.15.1.3.23.24a63.38,63.38,0,0,1,12.69-4.81A.29.29,0,0,0,297.2,434.26Z" style="fill:#263238"></path><path d="M300.73,435.7c-4.59-.13-9.94,1.42-12.85,5.13-.11.15.09.31.23.24a62.92,62.92,0,0,1,12.69-4.81A.28.28,0,0,0,300.73,435.7Z" style="fill:#263238"></path><path d="M304.26,437.13c-4.6-.13-9.94,1.42-12.85,5.14-.11.14.09.3.23.23a64.14,64.14,0,0,1,12.69-4.81A.28.28,0,0,0,304.26,437.13Z" style="fill:#263238"></path><path d="M253.13,441.39c-5.15-.06-5.25,7.95-.08,8S258.3,441.45,253.13,441.39Z" style="fill:#263238"></path><path d="M298.81,420.64c-2.3-2-5.25-.12-6.72,1.87a24.14,24.14,0,0,0-4.33,11.69c0,.1.06.14.14.13a.56.56,0,0,0,.82.38c3.3-2.21,7.11-4.18,9.63-7.34C299.82,425.52,301,422.5,298.81,420.64ZM293,430.33c-1.6,1.13-3.24,2.17-4.8,3.36a71.6,71.6,0,0,1,2.68-6.77,25.83,25.83,0,0,1,1.73-3.08c1-1.5,5.58-5.28,6-.27C298.83,426.33,294.94,429,293,430.33Z" style="fill:#263238"></path><path d="M276.32,435.74c4,.67,8.13-.41,12.07-1a.57.57,0,0,0,.36-.84.12.12,0,0,0,0-.19,24.09,24.09,0,0,0-11-5.81c-2.42-.49-5.85.11-6.25,3.1C271.1,433.87,274,435.35,276.32,435.74Zm-2.74-2.65c-3.05-4,2.86-4.22,4.63-3.78a24.67,24.67,0,0,1,3.33,1.14,70.69,70.69,0,0,1,6.52,3.25c-1.95.15-3.87.47-5.81.7C279.93,434.67,275.26,435.29,273.58,433.09Z" style="fill:#263238"></path><path d="M290.47,409.59h-45s1.72-73.19-3.12-73c-12.93.37-67.4,12.58-88.46-1.53-20.84-14-8.18-50.45-8.18-50.45l48.62-1a12.66,12.66,0,0,1,.57,4.51s65.4-3.89,82.74,8.67c5.68,4.11,13,14.92,14,25.44C294.42,352.1,290.47,409.59,290.47,409.59Z" style="fill:#263238"></path><path d="M265.07,372l-19.34,8.53c0-3.07,0-6.22-.06-9.34l19-8.39Z" style="fill:#407BFF"></path><path d="M265.74,388l-20.1,8.86c0-2.84.06-6,.08-9.39l19.64-8.66Z" style="fill:#407BFF"></path><path d="M176.11,236.29c20.77,13.51,37.63,17.36,42.23,17.68,11.55.8,26.61,2.18,34.85.14,3.05-.75-7.1-28.22-10.38-27.52-10.28,2.21-26.69,4.43-27.09,4.45-2.86.14-24.09-4.38-38.75-5.82C170.6,224.59,172,233.64,176.11,236.29Z" style="fill:#d3766a"></path><path d="M260.83,252.4c-5.59,2.49-19,3.09-22.32,2s-5.07-23.9-2.43-26.3,22.13-9.29,28.17-7.7S266.63,249.83,260.83,252.4Z" style="fill:#d3766a"></path><rect x="251.82" y="194.99" width="9.86" height="28.94" transform="translate(466.85 -46.76) rotate(90.14)" style="fill:#455a64"></rect><rect x="254.4" y="190.11" width="4.74" height="24.11" transform="translate(459.57 -54.1) rotate(90.14)" style="fill:#455a64"></rect><rect x="255.58" y="191.3" width="2.37" height="24.11" transform="translate(52.78 459.61) rotate(-89.86)" style="fill:#263238"></rect><rect x="251.71" y="244.35" width="9.86" height="28.94" transform="translate(-2.82 514.82) rotate(-89.86)" style="fill:#455a64"></rect><rect x="254.25" y="254.07" width="4.74" height="24.11" transform="translate(-10.14 522.08) rotate(-89.86)" style="fill:#455a64"></rect><rect x="255.44" y="252.88" width="2.37" height="24.11" transform="translate(-8.95 520.9) rotate(-89.86)" style="fill:#263238"></rect><rect x="236.95" y="229.87" width="39.49" height="8.55" transform="translate(491.38 -22.05) rotate(90.12)" style="fill:#37474f"></rect><path d="M254.46,219.81c-1.85,2.66,2.34,3.32,2.34,3.32s-6.27.5-7.12,4,4.28,4,4.65,4c-.33,0-6.08.64-6.58,4.22s4.71,3.48,5.05,3.46c-.31.13-4.3,1.86-4.06,4.67.42,4.83,10.76.68,14.3,2.38,0,0-2.18,6.33-2.21,6.52,0,0,9.92-3.74,11.94-8.65a3.39,3.39,0,0,0-1.14-4.09s3.34-.85,3.82-3.66c.24-1.45-1.86-3.12-1.86-3.12a4.25,4.25,0,0,0,2.91-3.32c.23-2-1.91-3.39-1.91-3.39s2.18-1.94,1.74-4.07C275.45,217.79,258.44,214.12,254.46,219.81Z" style="fill:#d3766a"></path><path d="M274.29,225.91a0,0,0,0,0,0-.09,30.18,30.18,0,0,0-17.74-2.75c-.19,0-.22.36,0,.37A61.35,61.35,0,0,1,274.29,225.91Z" style="fill:#263238"></path><path d="M273.69,232.86c.06,0,.09-.08,0-.12A28.27,28.27,0,0,0,254.18,231c-.23.07-.36.35-.1.3C258.56,230.26,268.31,231.21,273.69,232.86Z" style="fill:#263238"></path><path d="M252.39,239.13c6.39-1.65,12.66-1.09,19,.41a.07.07,0,0,0,0-.13c-2.91-1.59-7.07-2.12-10.34-2.27a17.38,17.38,0,0,0-8.78,1.77C252.22,239,252.25,239.16,252.39,239.13Z" style="fill:#263238"></path><path d="M256.8,223.13a20.12,20.12,0,0,0-3.5,1,6.61,6.61,0,0,0-2.9,1.89,2.16,2.16,0,0,0-.47,1.49,3.17,3.17,0,0,0,.51,1.53,3.91,3.91,0,0,0,2.8,1.47l2.64.29-2.58.65a10.85,10.85,0,0,0-3.25,1.37,3.88,3.88,0,0,0-1.91,2.55,2.21,2.21,0,0,0,1.27,2.49,6.62,6.62,0,0,0,3.33.5l3.14-.23L253,239.32a10,10,0,0,0-2.25,1.32,4.32,4.32,0,0,0-1.49,1.92,2,2,0,0,0,.49,2.06,4.42,4.42,0,0,0,2.33.85,34.29,34.29,0,0,0,5.46,0c.92,0,1.85-.07,2.77-.06a6.49,6.49,0,0,1,2.73.45,7.11,7.11,0,0,0-2.72-.2c-.91.07-1.83.17-2.74.28a30.5,30.5,0,0,1-5.59.27,5.19,5.19,0,0,1-2.82-.94,2.84,2.84,0,0,1-.84-3,5.19,5.19,0,0,1,1.79-2.44,10.93,10.93,0,0,1,2.48-1.5l.26,1a7.84,7.84,0,0,1-4-.55,3.28,3.28,0,0,1-1.56-1.52,3.7,3.7,0,0,1-.26-2.14,4.93,4.93,0,0,1,2.41-3.23,11.84,11.84,0,0,1,3.6-1.45l.06.94a4.65,4.65,0,0,1-3.36-2,3.87,3.87,0,0,1-.54-1.92,2.82,2.82,0,0,1,.68-1.87,6.85,6.85,0,0,1,3.26-1.84A16.49,16.49,0,0,1,256.8,223.13Z" style="fill:#263238"></path><path d="M239.19,226.33s17.68-19,21.73-8.47c1.2,3.14,2.4,17.45-.47,17.75-3.7.38-5.32-5.5-5.75-9.35,0,0-5.1,7.32-11.25,5.28A6.44,6.44,0,0,1,239.19,226.33Z" style="fill:#d3766a"></path><path d="M260.53,217a13.63,13.63,0,0,1,1.31,3.74,28.91,28.91,0,0,1,.6,3.93,46,46,0,0,1,.1,8,7.81,7.81,0,0,1-.46,2.06,2.71,2.71,0,0,1-.67,1,1.83,1.83,0,0,1-.55.38,1.94,1.94,0,0,1-.64.16,3.36,3.36,0,0,1-2.23-.61,6.2,6.2,0,0,1-1.49-1.58,12,12,0,0,1-1.58-3.78,28.51,28.51,0,0,1-.68-4l.84.2a15.19,15.19,0,0,1-2.05,2.25,14.27,14.27,0,0,1-2.42,1.81,10.5,10.5,0,0,1-2.8,1.14,7.83,7.83,0,0,1-3,.14,8.68,8.68,0,0,0,2.88-.45,10.66,10.66,0,0,0,2.58-1.32,14.05,14.05,0,0,0,2.21-1.86,14.64,14.64,0,0,0,1.81-2.22l.65-1,.19,1.18a28,28,0,0,0,.77,3.79,11.58,11.58,0,0,0,1.48,3.45c.67,1,1.68,1.83,2.69,1.71s1.25-1.42,1.4-2.65a37.91,37.91,0,0,0,.25-3.87c0-1.31.05-2.61,0-3.92A25.57,25.57,0,0,0,260.53,217Z" style="fill:#263238"></path><path d="M208.12,251.7a129.66,129.66,0,0,1-32-15.4c-3.77-2.46-5.28-10.41-.4-11.06Z" style="fill:#263238"></path><path d="M193.16,265.26l1.13,18.3-48.62,1s.86-41.8,14.69-56.5c6.92-7.35,14.94-6.7,20-1.46,1.28,1.33,14.41,17.11,16,24.93C197.66,258.43,193.16,265.26,193.16,265.26Z" style="fill:#d3766a"></path><path d="M196.32,251.54c1.34,6.89-3.16,13.72-3.16,13.72l.89,6.17-48.38.53c.83-11.32,4.63-33.19,14.7-43.89a19.51,19.51,0,0,1,3.8-3.19c3.68,3.67,15.5,15.11,18.73,13.41,2.95-1.55-1.41-9.21-3.57-12.65a11.72,11.72,0,0,1,1,1C181.64,227.94,194.78,243.73,196.32,251.54Z" style="fill:#407BFF"></path><path d="M190.55,263.68a19,19,0,0,0-6.73-.11,53.83,53.83,0,0,0-6.76,1.5l-3.86,1s0,.08,0,.07a61.35,61.35,0,0,0,6.78-1.2c2.25-.45,4.49-.81,6.75-1.05a22.84,22.84,0,0,1,3.79,0C190.61,263.87,190.64,263.7,190.55,263.68Z" style="fill:#263238"></path><path d="M192.24,264.78a15.06,15.06,0,0,0-7,0s0,.07,0,.07c1.16-.05,2.31-.1,3.47-.09s2.33.06,3.49.1C192.28,264.87,192.28,264.79,192.24,264.78Z" style="fill:#263238"></path><path d="M187.51,275.33a2.45,2.45,0,0,0-.77.83,3.43,3.43,0,0,0-.44,1,5.19,5.19,0,0,0-.11,2.18c.07.35.23.63.48.66s.47-.18.58-.52a2.87,2.87,0,0,0,.08-1.1,2.25,2.25,0,0,0-.34-1.08,2.63,2.63,0,0,1,.62,2.27,1.33,1.33,0,0,1-.28.62.83.83,0,0,1-.71.27.88.88,0,0,1-.65-.39,1.58,1.58,0,0,1-.26-.62,4.66,4.66,0,0,1,.19-2.43A2.79,2.79,0,0,1,187.51,275.33Z" style="fill:#263238"></path><path d="M165.91,224.68c.35,1,8.94,7.89,11.11,6.59,2.62-1.57,1.23-8.49,1.23-8.49l1.06-9-11.06-5.57-1.59-.73s-.13,2.49-.25,5.59c0,.15,0,.29,0,.44l0,.51C166.34,214.45,165.76,224.25,165.91,224.68Z" style="fill:#d3766a"></path><path d="M166.41,213a18.27,18.27,0,0,0,11.84,9.74l1.06-9-11.06-5.57-1.59-.73S166.53,209.94,166.41,213Z" style="fill:#263238"></path><path d="M189.29,198.13c1.76,15.86-7.54,18.71-11,19.08-3.1.35-13.72,1.11-17.11-14.48s3.42-21.42,10.48-22.58S187.52,182.27,189.29,198.13Z" style="fill:#d3766a"></path><path d="M186.75,195.64a10,10,0,0,1-1.1-.13,1.69,1.69,0,0,1-1.09-.35.57.57,0,0,1-.06-.69,1.44,1.44,0,0,1,1.35-.45,2.05,2.05,0,0,1,1.36.62A.6.6,0,0,1,186.75,195.64Z" style="fill:#263238"></path><path d="M176.21,197.82a10,10,0,0,0,1.1,0,1.76,1.76,0,0,0,1.13-.18.55.55,0,0,0,.16-.67,1.38,1.38,0,0,0-1.26-.65,2.06,2.06,0,0,0-1.44.39A.61.61,0,0,0,176.21,197.82Z" style="fill:#263238"></path><path d="M178.71,200.25s-.08.06-.07.11c.15,1.07.15,2.33-.79,2.8,0,0,0,.07,0,.06C179,202.92,179,201.25,178.71,200.25Z" style="fill:#263238"></path><path d="M177.62,199.23c-1.75.07-1.5,3.57.12,3.51S179.09,199.18,177.62,199.23Z" style="fill:#263238"></path><path d="M176.94,199.47c-.29.22-.56.59-.93.65s-.77-.26-1.07-.6c0,0-.06,0-.06,0,0,.67.35,1.34,1.07,1.39s1.09-.59,1.21-1.28C177.18,199.56,177.06,199.38,176.94,199.47Z" style="fill:#263238"></path><path d="M184.72,199.59c0-.05.08,0,.09.09,0,1.08.26,2.32,1.26,2.62,0,0,0,.06,0,.06C184.86,202.27,184.58,200.62,184.72,199.59Z" style="fill:#263238"></path><path d="M185.61,198.39c1.73-.25,2.1,3.24.49,3.47S184.16,198.6,185.61,198.39Z" style="fill:#263238"></path><path d="M186.36,198.54c.3.16.6.47.94.45s.62-.42.83-.81c0,0,.05,0,.06,0,.08.66-.06,1.38-.69,1.57s-1.06-.35-1.29-1C186.17,198.68,186.24,198.48,186.36,198.54Z" style="fill:#263238"></path><path d="M179.23,209.16c.27.24.54.59.94.61a2.87,2.87,0,0,0,1.16-.31s.07,0,0,.06a1.48,1.48,0,0,1-1.36.63,1.17,1.17,0,0,1-.88-.94C179.11,209.15,179.2,209.12,179.23,209.16Z" style="fill:#263238"></path><path d="M183.43,204.86s.36,1.6.42,2.36c0,.07-.17.12-.43.16h0a3.63,3.63,0,0,1-3.64-1,.08.08,0,0,1,.11-.12,5.51,5.51,0,0,0,3.39.67c0-.22-.71-2.72-.59-2.74a6.85,6.85,0,0,1,1.77.25c-.66-3.35-1.84-6.57-2.45-9.92a.11.11,0,0,1,.2-.06A54.94,54.94,0,0,1,185.26,205C185.36,205.4,183.74,205,183.43,204.86Z" style="fill:#263238"></path><path d="M183.28,207a4.4,4.4,0,0,1-1.54,1.64,2,2,0,0,1-1.18.26c-.9-.09-1.05-.88-1-1.58a4.81,4.81,0,0,1,.22-1.1A5.73,5.73,0,0,0,183.28,207Z" style="fill:#263238"></path><path d="M181.74,208.66a2,2,0,0,1-1.18.26c-.9-.09-1.05-.88-1-1.58A2,2,0,0,1,181.74,208.66Z" style="fill:#ff99ba"></path><path d="M163.45,204.64c-.8-.92-6-5.68-6.42-8.27-.25-1.51,2-5.78,2-5.78l-2.2-1.29,2,.4-3.16-4.59,3.73,2.93s.4-3.91.68-4.87,6.23-6.39,6.23-6.39l-1.68,3.4s11.15-5.38,12.59-5.34c3.62.08,11.75,5.35,11.75,5.35l-8.5-.81s8.29,2.85,10,4.24,3.14,8.62,3.14,8.62l-7.67-4.5,2.9,4s-6.4,1.37-8.28,1.42c-4,.1-13.35-2.64-13.35-2.64a39.27,39.27,0,0,1,.35,4.58,30.8,30.8,0,0,1-1.75,6l-1.15-3.13Z" style="fill:#263238"></path><path d="M161.84,208.58a2.79,2.79,0,0,0,.74.17,2.37,2.37,0,0,0,.75,0,2.44,2.44,0,0,0,.92-.32,2.87,2.87,0,0,0,.59-.48,3.11,3.11,0,0,0,.58-.91l-1-4.24s-3.61-4.9-5.83-3.6S159.16,207.66,161.84,208.58Z" style="fill:#d3766a"></path><path d="M159.45,201.24s0,0,0,.07c1.88.71,2.9,2.41,3.63,4.18a1.49,1.49,0,0,0-2.24-.35c-.05,0,0,.11,0,.09a1.66,1.66,0,0,1,1.84.54,7.3,7.3,0,0,1,.91,1.46c.09.16.39.06.32-.13v0C163.93,204.69,162,201.41,159.45,201.24Z" style="fill:#263238"></path><path d="M162,207.91a.75.75,0,0,0,.89.55.73.73,0,0,0,.56-.88.74.74,0,0,0-1.45.33Z" style="fill:#fff"></path><path d="M160.5,206.83a.52.52,0,0,0,.62.39.52.52,0,0,0,.4-.62.53.53,0,0,0-.63-.4A.52.52,0,0,0,160.5,206.83Z" style="fill:#fff"></path><path d="M171.43,197.77c-1.12,0-.52-2.11-.29-2.84a13.06,13.06,0,0,0,.29-2.37,12.18,12.18,0,0,0,.29,2.37C172,195.66,172.55,197.77,171.43,197.77Z" style="fill:#fff"></path><path d="M169.82,199.94c-.81,0-.37-1.53-.2-2.06a9.77,9.77,0,0,0,.2-1.72,9.15,9.15,0,0,0,.21,1.72C170.2,198.41,170.64,199.94,169.82,199.94Z" style="fill:#fff"></path><path d="M162.12,237.85c-20.78,13.5-37.64,17.36-42.24,17.68-11.55.79-26.6-.53-34.85-2.57-3-.76,7.1-28.23,10.38-27.52,10.28,2.2,26.69,7.14,27.1,7.16,2.85.13,24.08-4.39,38.74-5.83C167.62,226.15,166.19,235.2,162.12,237.85Z" style="fill:#d3766a"></path><path d="M76.12,250.8c5.39,2.89,18.74,4.49,22.11,3.64s6.85-23.45,4.39-26-21.37-10.92-27.51-9.78S70.53,247.8,76.12,250.8Z" style="fill:#d3766a"></path><rect x="76.54" y="193.84" width="9.86" height="28.94" transform="translate(289.58 126.32) rotate(89.86)" style="fill:#455a64"></rect><rect x="79.09" y="188.96" width="4.74" height="24.11" transform="translate(282.27 119.06) rotate(89.86)" style="fill:#455a64"></rect><rect x="69.4" y="201.01" width="24.11" height="2.37" transform="translate(-0.5 0.2) rotate(-0.14)" style="fill:#263238"></rect><rect x="76.65" y="243.2" width="9.86" height="28.94" transform="translate(-175.88 339.89) rotate(-90.14)" style="fill:#455a64"></rect><rect x="79.23" y="252.92" width="4.74" height="24.11" transform="translate(-183.16 347.23) rotate(-90.14)" style="fill:#455a64"></rect><rect x="69.55" y="262.6" width="24.11" height="2.37" transform="translate(-0.66 0.2) rotate(-0.14)" style="fill:#263238"></rect><rect x="61.78" y="228.71" width="39.49" height="8.55" transform="translate(314.35 150.97) rotate(89.88)" style="fill:#37474f"></rect><path d="M84.91,218.77c1.65,2.79-2.58,3.14-2.58,3.14s6.21,1,6.8,4.5-4.57,3.65-4.93,3.68c.32,0,6,1.09,6.24,4.7.23,3.76-5,3.12-5.29,3.07.29.15,4.15,2.18,3.7,5-.78,4.79-10.79-.12-14.44,1.3,0,0,1.7,6.48,1.71,6.68,0,0-9.61-4.48-11.26-9.52a3.39,3.39,0,0,1,1.44-4s-3.26-1.11-3.52-3.95c-.14-1.45,2.07-3,2.07-3a4.24,4.24,0,0,1-2.65-3.53c-.07-2,2.16-3.23,2.16-3.23s-2-2.09-1.43-4.19C64.13,215.19,81.36,212.8,84.91,218.77Z" style="fill:#d3766a"></path><path d="M64.68,223.37c-.05,0-.08-.07,0-.09a30.13,30.13,0,0,1,17.9-1.41c.19,0,.19.37,0,.36A61.49,61.49,0,0,0,64.68,223.37Z" style="fill:#263238"></path><path d="M64.76,230.35c-.06,0-.09-.09,0-.12a28.22,28.22,0,0,1,19.62-.33c.22.08.33.38.07.3C80,228.89,70.25,229.1,64.76,230.35Z" style="fill:#263238"></path><path d="M85.54,238.19c-6.25-2.13-12.55-2-19-1-.08,0-.09-.11,0-.14,3-1.36,7.21-1.58,10.48-1.48A17.41,17.41,0,0,1,85.61,238C85.71,238,85.67,238.23,85.54,238.19Z" style="fill:#263238"></path><path d="M82.33,221.91a19.53,19.53,0,0,1,3.42,1.2,6.62,6.62,0,0,1,2.75,2.11,2.18,2.18,0,0,1,.36,1.52,3.12,3.12,0,0,1-.63,1.48,3.86,3.86,0,0,1-2.89,1.26l-2.66.09,2.53.84A11.06,11.06,0,0,1,88.34,232a3.87,3.87,0,0,1,1.71,2.69,2.21,2.21,0,0,1-1.44,2.39,6.8,6.8,0,0,1-3.37.25l-3.11-.46,2.78,1.44a10.87,10.87,0,0,1,2.15,1.49,4.19,4.19,0,0,1,1.33,2,2,2,0,0,1-.64,2,4.41,4.41,0,0,1-2.38.68,34.8,34.8,0,0,1-5.45-.39c-.91-.1-1.83-.21-2.76-.27a6.54,6.54,0,0,0-2.75.24,7.11,7.11,0,0,1,2.72,0c.91.13,1.82.31,2.72.48a29.88,29.88,0,0,0,5.55.69,5.19,5.19,0,0,0,2.88-.72,2.84,2.84,0,0,0,1.06-2.93,5.21,5.21,0,0,0-1.59-2.57,11.45,11.45,0,0,0-2.37-1.69l-.33,1a7.69,7.69,0,0,0,4-.25,3.21,3.21,0,0,0,1.67-1.4,3.6,3.6,0,0,0,.43-2.11,4.91,4.91,0,0,0-2.17-3.4,12,12,0,0,0-3.48-1.72l-.13.93a4.61,4.61,0,0,0,3.5-1.75,3.86,3.86,0,0,0,.68-1.87,2.78,2.78,0,0,0-.54-1.92,6.79,6.79,0,0,0-3.11-2.07A15.75,15.75,0,0,0,82.33,221.91Z" style="fill:#263238"></path><path d="M99.65,226.42s-16.21-20.3-21-10.08c-1.44,3-3.71,17.23-.87,17.74,3.67.66,5.72-5.09,6.44-8.9,0,0,4.54,7.68,10.83,6.11A6.43,6.43,0,0,0,99.65,226.42Z" style="fill:#d3766a"></path><path d="M79.07,215.52a13.61,13.61,0,0,0-1.59,3.62,30.28,30.28,0,0,0-.89,3.88A45.49,45.49,0,0,0,75.9,231a7.38,7.38,0,0,0,.3,2.09,3,3,0,0,0,.59,1.06,2,2,0,0,0,1.15.63,3.32,3.32,0,0,0,2.27-.45,6.23,6.23,0,0,0,1.6-1.46,12,12,0,0,0,1.86-3.66,27.65,27.65,0,0,0,1-3.89l-.85.14a16.37,16.37,0,0,0,1.88,2.39,14.4,14.4,0,0,0,2.28,2,10.16,10.16,0,0,0,2.7,1.34,7.85,7.85,0,0,0,3,.36,8.65,8.65,0,0,1-2.85-.66,11,11,0,0,1-2.47-1.51,14.49,14.49,0,0,1-2.06-2A14.89,14.89,0,0,1,84.59,225l-.57-1-.28,1.17a28.82,28.82,0,0,1-1,3.72A11.85,11.85,0,0,1,81,232.14a3.26,3.26,0,0,1-2.81,1.51c-.89-.09-1.14-1.52-1.2-2.75A38.75,38.75,0,0,1,77,227c.06-1.31.14-2.61.29-3.91A24.81,24.81,0,0,1,79.07,215.52Z" style="fill:#263238"></path><path d="M162.69,226.77c7,.54,3.32,20.76-4.49,20.16S156.64,226.31,162.69,226.77Z" style="fill:#d3766a"></path><path d="M159.36,240.27l-.77.23c1.12-.64,2.21-1.33,3.27-2.06,0,0,0-.05,0,0-1.32.65-2.61,1.31-3.89,2-.6.34-1.22.66-1.81,1s-1.31.84-2,1.2c-.08,0,0,.17.05.13.66-.35,1.34-.64,2-1s1.15-.6,1.71-.91c.19-.05.39-.09.58-.15s.61-.2.91-.32c.6-.24,1.2-.5,1.79-.75,0,0,0,0,0,0C160.58,239.89,160,240.09,159.36,240.27Z" style="fill:#263238"></path></g><g id="freepik--Bottle--inject-2"><rect x="176.06" y="386.9" width="7.34" height="8.44" style="fill:#dbdbdb"></rect><rect x="173.75" y="392.61" width="11.97" height="9.64" style="fill:#455a64"></rect><path d="M194,414.19v44.13H165.51V414.19c0-8.73,5.49-15.48,14.22-15.48S194,405.46,194,414.19Z" style="fill:#407BFF"></path><path d="M178.2,402a1.11,1.11,0,1,1-1.11-1.11A1.11,1.11,0,0,1,178.2,402Z" style="fill:#fff"></path><path d="M192.33,412a1.11,1.11,0,1,1-1.11-1.11A1.11,1.11,0,0,1,192.33,412Z" style="fill:#fff"></path><path d="M179.74,413.09a1.11,1.11,0,1,1-1.11-1.1A1.11,1.11,0,0,1,179.74,413.09Z" style="fill:#fff"></path><circle cx="179.74" cy="423.69" r="1.11" style="fill:#fff"></circle><path d="M169.39,434.77a1.11,1.11,0,1,1-1.11-1.11A1.11,1.11,0,0,1,169.39,434.77Z" style="fill:#fff"></path><circle cx="167.17" cy="424.91" r="1.11" style="fill:#fff"></circle><path d="M168.55,414.47a1.11,1.11,0,1,1-1.1-1.11A1.11,1.11,0,0,1,168.55,414.47Z" style="fill:#fff"></path><circle cx="172.25" cy="408.08" r="1.11" style="fill:#fff"></circle><path d="M174.47,419.07a1.11,1.11,0,1,1-1.11-1.1A1.11,1.11,0,0,1,174.47,419.07Z" style="fill:#fff"></path><circle cx="184.21" cy="407.11" r="1.11" style="fill:#fff"></circle><path d="M186.66,417.88a1.11,1.11,0,1,1-1.11-1.11A1.1,1.1,0,0,1,186.66,417.88Z" style="fill:#fff"></path><path d="M175.07,429.39a1.11,1.11,0,1,1-1.11-1.11A1.11,1.11,0,0,1,175.07,429.39Z" style="fill:#fff"></path><path d="M187,438.15A1.11,1.11,0,1,1,185.9,437,1.11,1.11,0,0,1,187,438.15Z" style="fill:#fff"></path><path d="M186.84,446.49a1.11,1.11,0,1,1-1.11-1.11A1.1,1.1,0,0,1,186.84,446.49Z" style="fill:#fff"></path><path d="M175.73,438.34a1.11,1.11,0,1,1-1.11-1.11A1.11,1.11,0,0,1,175.73,438.34Z" style="fill:#fff"></path><path d="M170.33,451.34a1.11,1.11,0,1,1-1.11-1.11A1.11,1.11,0,0,1,170.33,451.34Z" style="fill:#fff"></path><path d="M181.47,433.35a1.11,1.11,0,1,1-1.11-1.11A1.11,1.11,0,0,1,181.47,433.35Z" style="fill:#fff"></path><path d="M181.61,442.36a1.11,1.11,0,1,1-1.11-1.11A1.11,1.11,0,0,1,181.61,442.36Z" style="fill:#fff"></path><path d="M181.61,451.34a1.11,1.11,0,1,1-1.11-1.11A1.11,1.11,0,0,1,181.61,451.34Z" style="fill:#fff"></path><path d="M187.25,455.49a1.11,1.11,0,1,1-1.11-1.1A1.11,1.11,0,0,1,187.25,455.49Z" style="fill:#fff"></path><circle cx="169.08" cy="442.89" r="1.11" style="fill:#fff"></circle><path d="M175.73,446.88a1.11,1.11,0,1,1-1.11-1.11A1.11,1.11,0,0,1,175.73,446.88Z" style="fill:#fff"></path><path d="M192.52,451.34a1.11,1.11,0,1,1-1.1-1.11A1.11,1.11,0,0,1,192.52,451.34Z" style="fill:#fff"></path><path d="M176,455.58a1.11,1.11,0,1,1-1.11-1.11A1.11,1.11,0,0,1,176,455.58Z" style="fill:#fff"></path><path d="M192.69,433.66a1.11,1.11,0,1,1-1.11-1.11A1.11,1.11,0,0,1,192.69,433.66Z" style="fill:#fff"></path><path d="M192.69,442.36a1.11,1.11,0,1,1-1.11-1.11A1.11,1.11,0,0,1,192.69,442.36Z" style="fill:#fff"></path><circle cx="186.14" cy="429.06" r="1.11" style="fill:#fff"></circle><path d="M193.25,423.53a1.11,1.11,0,1,1-1.11-1.11A1.11,1.11,0,0,1,193.25,423.53Z" style="fill:#fff"></path></g><g id="freepik--Dumbbells--inject-2"><rect x="330.92" y="435.01" width="11.36" height="25.94" style="fill:#455a64"></rect><rect x="325.46" y="437.8" width="5.46" height="20.37" style="fill:#455a64"></rect><rect x="328.19" y="437.8" width="2.73" height="20.37" style="fill:#37474f"></rect><rect x="375.91" y="435.01" width="11.36" height="25.94" transform="translate(763.18 895.97) rotate(180)" style="fill:#455a64"></rect><rect x="387.27" y="437.8" width="5.46" height="20.37" transform="translate(780 895.97) rotate(180)" style="fill:#455a64"></rect><rect x="387.27" y="437.8" width="2.73" height="20.37" style="fill:#37474f"></rect><rect x="342.28" y="443.06" width="33.63" height="9.85" style="fill:#37474f"></rect><rect x="375.59" y="445.03" width="11.36" height="25.94" style="fill:#455a64"></rect><rect x="370.13" y="447.81" width="5.46" height="20.37" style="fill:#455a64"></rect><rect x="372.86" y="447.81" width="2.73" height="20.37" style="fill:#37474f"></rect><rect x="420.58" y="445.03" width="11.36" height="25.94" transform="translate(852.52 915.99) rotate(180)" style="fill:#455a64"></rect><rect x="431.94" y="447.81" width="5.46" height="20.37" transform="translate(869.34 915.99) rotate(180)" style="fill:#455a64"></rect><rect x="431.94" y="447.81" width="2.73" height="20.37" style="fill:#37474f"></rect><rect x="386.95" y="453.07" width="33.63" height="9.85" style="fill:#37474f"></rect></g><g id="freepik--speech-bubble--inject-2"><path d="M286.58,68.37a21.83,21.83,0,0,0,36.49,13.81L334,83.79l-5.47-9.45A21.6,21.6,0,0,0,330,63.82a21.84,21.84,0,0,0-43.45,4.55Z" style="fill:#fff"></path><path d="M293.11,50.33a21.8,21.8,0,0,1,18.3-6.08,22,22,0,0,1,9.33,3.5,22.09,22.09,0,0,1,8.18,26.75l0-.37,5.43,9.46.4.7-.79-.12L323,82.49l.25-.08a22.1,22.1,0,0,1-10.8,5.34,19.21,19.21,0,0,1-3,.31,20.79,20.79,0,0,1-8.91-1.46,21.58,21.58,0,0,1-5.27-2.93,25.33,25.33,0,0,1-2.31-2,25.27,25.27,0,0,1-2-2.28,22,22,0,0,1,2.13-29.11Zm-2.06,29.06a25,25,0,0,0,2,2.25,24.73,24.73,0,0,0,2.3,1.93,20.34,20.34,0,0,0,5.27,2.84,21.14,21.14,0,0,0,8.82,1.29,19.75,19.75,0,0,0,3-.36A21.55,21.55,0,0,0,322.86,82l.11-.1.15,0,10.93,1.53-.39.58-5.5-9.43-.1-.18.08-.19a22,22,0,0,0,1.54-9.52,21.51,21.51,0,0,0-2.78-9.24,22.49,22.49,0,0,0-6.53-7.13,21.38,21.38,0,0,0-9-3.56,21.78,21.78,0,0,0-9.72.72,21.6,21.6,0,0,0-10.58,33.94Z" style="fill:#263238"></path><polygon points="305.13 78.55 295.8 69.11 298.94 66.01 304.38 71.53 315.71 53.77 319.42 56.14 305.13 78.55" style="fill:#407BFF"></polygon></g></svg>